<svg width="17" height="17" viewBox="0 0 17 17" fill="none" xmlns="http://www.w3.org/2000/svg">
<path d="M15.8262 7.32996H9.82617V1.32996C9.82617 1.06474 9.72081 0.810386 9.53328 0.622849C9.34574 0.435313 9.09139 0.329956 8.82617 0.329956C8.56096 0.329956 8.3066 0.435313 8.11907 0.622849C7.93153 0.810386 7.82617 1.06474 7.82617 1.32996V7.32996H1.82617C1.56096 7.32996 1.3066 7.43531 1.11907 7.62285C0.931529 7.81039 0.826172 8.06474 0.826172 8.32996C0.826172 8.59517 0.931529 8.84953 1.11907 9.03706C1.3066 9.2246 1.56096 9.32996 1.82617 9.32996H7.82617V15.33C7.82617 15.5952 7.93153 15.8495 8.11907 16.0371C8.3066 16.2246 8.56096 16.33 8.82617 16.33C9.09139 16.33 9.34574 16.2246 9.53328 16.0371C9.72081 15.8495 9.82617 15.5952 9.82617 15.33V9.32996H15.8262C16.0914 9.32996 16.3457 9.2246 16.5333 9.03706C16.7208 8.84953 16.8262 8.59517 16.8262 8.32996C16.8262 8.06474 16.7208 7.81039 16.5333 7.62285C16.3457 7.43531 16.0914 7.32996 15.8262 7.32996Z" fill="black"/>
</svg>
