<svg width="8" height="14" viewBox="0 0 8 14" fill="none" xmlns="http://www.w3.org/2000/svg">
<path d="M0.460262 5.98633L6.12026 0.336326C6.21323 0.242597 6.32383 0.168203 6.44569 0.117435C6.56754 0.0666658 6.69825 0.0405273 6.83026 0.0405273C6.96227 0.0405273 7.09298 0.0666658 7.21484 0.117435C7.3367 0.168203 7.4473 0.242597 7.54026 0.336326C7.72651 0.523688 7.83105 0.77714 7.83105 1.04133C7.83105 1.30551 7.72651 1.55896 7.54026 1.74633L2.59026 6.74633L7.54026 11.6963C7.72651 11.8837 7.83105 12.1371 7.83105 12.4013C7.83105 12.6655 7.72651 12.919 7.54026 13.1063C7.44765 13.2008 7.3372 13.276 7.21533 13.3275C7.09345 13.379 6.96257 13.4058 6.83026 13.4063C6.69795 13.4058 6.56707 13.379 6.4452 13.3275C6.32332 13.276 6.21288 13.2008 6.12026 13.1063L0.460262 7.45633C0.358757 7.36268 0.277749 7.24903 0.222342 7.12253C0.166934 6.99603 0.13833 6.85943 0.13833 6.72133C0.13833 6.58322 0.166934 6.44662 0.222342 6.32012C0.277749 6.19362 0.358757 6.07997 0.460262 5.98633V5.98633Z" fill="#2C2C2C"/>
</svg>
