<svg width="224" height="212" viewBox="0 0 224 212" fill="none" xmlns="http://www.w3.org/2000/svg">
<rect x="0.344238" y="0.541992" width="223" height="211" rx="20" fill="#33FF00"/>
<mask id="mask0_240_12969" style="mask-type:alpha" maskUnits="userSpaceOnUse" x="0" y="0" width="224" height="212">
<rect x="0.344238" y="0.541992" width="223" height="211" rx="20" fill="#33FF00"/>
</mask>
<g mask="url(#mask0_240_12969)">
<path d="M137.647 109.748L217.698 63.0538L172.088 143.728L171.664 144.478L172.525 144.474L265.199 144.061L185.362 191.122L184.62 191.559L185.368 191.986L265.832 237.966L173.161 238.803L172.3 238.811L172.734 239.555L219.428 319.607L138.754 273.996L138.004 273.572L138.008 274.434L138.421 367.107L91.3603 287.271L90.9229 286.528L90.4955 287.276L44.5159 367.741L43.6788 275.07L43.671 274.208L42.9269 274.642L-37.1247 321.336L8.48584 240.663L8.90981 239.913L8.04836 239.916L-84.6254 240.329L-4.78862 193.269L-4.04649 192.831L-4.79445 192.404L-85.2586 146.424L7.41232 145.587L8.27375 145.579L7.8397 144.835L-38.8545 64.7836L41.8194 110.394L42.5693 110.818L42.5655 109.957L42.1529 17.2829L89.2133 97.1197L89.6508 97.8618L90.0782 97.1138L136.058 16.6497L136.895 109.321L136.903 110.182L137.647 109.748Z" fill="#2C2C2C" stroke="#2C2C2C"/>
<path d="M25.3311 174.542V161.859H14.7227V174.542H16.9902V163.767H23.0635V174.542H25.3311ZM30.7552 174.7C32.0208 174.7 33.0403 174.155 33.5677 173.224H33.7171V174.542H35.8792V167.977C35.8792 165.946 34.4905 164.751 32.0208 164.751C29.7356 164.751 28.1888 165.823 27.9778 167.44L27.969 167.52H30.0345L30.0432 167.484C30.263 166.852 30.9134 166.491 31.9153 166.491C33.093 166.491 33.7171 167.019 33.7171 167.977V168.803L31.2473 168.952C28.9095 169.093 27.5999 170.095 27.5999 171.809V171.826C27.5999 173.575 28.927 174.7 30.7552 174.7ZM29.762 171.721V171.703C29.762 170.912 30.3333 170.464 31.555 170.385L33.7171 170.244V171.018C33.7171 172.16 32.7415 173.021 31.4231 173.021C30.4563 173.021 29.762 172.538 29.762 171.721ZM44.6343 174.542H46.8228V164.936H44.6343V168.741H40.5826V164.936H38.3941V174.542H40.5826V170.438H44.6343V174.542ZM49.3817 174.542H51.5438L55.5868 168.073H55.7713V174.542H57.9334V164.936H55.7713L51.7196 171.369H51.5438V164.936H49.3817V174.542ZM68.464 174.542V164.936H66.2755V168.864C65.9239 169.225 65.2472 169.479 64.2892 169.479C63.0939 169.479 62.4874 168.812 62.4874 167.625V164.936H60.2989V167.81C60.2989 169.945 61.5909 171.325 63.8761 171.325C64.8605 171.325 65.6075 171.088 66.1173 170.701H66.2755V174.542H68.464ZM75.1449 174.735C77.7553 174.735 79.0385 173.232 79.3461 171.993L79.3725 171.914H77.2895L77.2631 171.976C77.0521 172.415 76.3754 173.013 75.1889 173.013C73.7035 173.013 72.7719 172.011 72.7455 170.288H79.4604V169.567C79.4604 166.667 77.7729 164.751 75.0395 164.751C72.3061 164.751 70.557 166.729 70.557 169.752V169.761C70.557 172.819 72.2885 174.735 75.1449 174.735ZM75.0658 166.465C76.2875 166.465 77.1752 167.247 77.3246 168.82H72.7631C72.9301 167.291 73.8441 166.465 75.0658 166.465ZM85.6667 174.735C88.1012 174.735 89.5163 173.426 89.8327 171.457L89.8503 171.387L87.7848 171.396L87.7673 171.431C87.4948 172.441 86.8005 172.96 85.6667 172.96C84.1813 172.96 83.2936 171.765 83.2936 169.726V169.708C83.2936 167.695 84.1725 166.518 85.6667 166.518C86.862 166.518 87.5739 167.186 87.7761 168.117L87.7848 168.144H89.8503V168.108C89.6042 166.122 88.1276 164.751 85.6579 164.751C82.7663 164.751 81.07 166.605 81.07 169.708V169.726C81.07 172.863 82.7751 174.735 85.6667 174.735ZM94.5009 170.394L97.7002 174.542H100.346L96.2851 169.383L100.161 164.936H97.6474L94.4834 168.794H94.0088V164.936H91.8203V174.542H94.0088V170.394H94.5009ZM104.328 174.7C105.594 174.7 106.614 174.155 107.141 173.224H107.29V174.542H109.452V167.977C109.452 165.946 108.064 164.751 105.594 164.751C103.309 164.751 101.762 165.823 101.551 167.44L101.542 167.52H103.608L103.616 167.484C103.836 166.852 104.487 166.491 105.489 166.491C106.666 166.491 107.29 167.019 107.29 167.977V168.803L104.821 168.952C102.483 169.093 101.173 170.095 101.173 171.809V171.826C101.173 173.575 102.5 174.7 104.328 174.7ZM103.335 171.721V171.703C103.335 170.912 103.906 170.464 105.128 170.385L107.29 170.244V171.018C107.29 172.16 106.315 173.021 104.996 173.021C104.03 173.021 103.335 172.538 103.335 171.721ZM117.223 174.542H119.376V164.936H115.413C113.171 164.936 111.695 166.192 111.695 168.196V168.214C111.695 169.532 112.495 170.561 113.804 170.947L111.229 174.542H113.725L115.975 171.308H117.223V174.542ZM115.58 169.699C114.534 169.699 113.883 169.066 113.883 168.205V168.188C113.883 167.229 114.525 166.614 115.58 166.614H117.223V169.699H115.58ZM129.082 174.7C130.348 174.7 131.367 174.155 131.895 173.224H132.044V174.542H134.206V167.977C134.206 165.946 132.817 164.751 130.348 164.751C128.063 164.751 126.516 165.823 126.305 167.44L126.296 167.52H128.361L128.37 167.484C128.59 166.852 129.24 166.491 130.242 166.491C131.42 166.491 132.044 167.019 132.044 167.977V168.803L129.574 168.952C127.236 169.093 125.927 170.095 125.927 171.809V171.826C125.927 173.575 127.254 174.7 129.082 174.7ZM128.089 171.721V171.703C128.089 170.912 128.66 170.464 129.882 170.385L132.044 170.244V171.018C132.044 172.16 131.068 173.021 129.75 173.021C128.783 173.021 128.089 172.538 128.089 171.721ZM144.06 164.936H135.956V166.632H138.91V174.542H141.098V166.632H144.06V164.936ZM148.315 174.7C149.581 174.7 150.6 174.155 151.128 173.224H151.277V174.542H153.439V167.977C153.439 165.946 152.05 164.751 149.581 164.751C147.296 164.751 145.749 165.823 145.538 167.44L145.529 167.52H147.594L147.603 167.484C147.823 166.852 148.473 166.491 149.475 166.491C150.653 166.491 151.277 167.019 151.277 167.977V168.803L148.807 168.952C146.469 169.093 145.16 170.095 145.16 171.809V171.826C145.16 173.575 146.487 174.7 148.315 174.7ZM147.322 171.721V171.703C147.322 170.912 147.893 170.464 149.115 170.385L151.277 170.244V171.018C151.277 172.16 150.301 173.021 148.983 173.021C148.016 173.021 147.322 172.538 147.322 171.721ZM158.635 170.394L161.834 174.542H164.479L160.419 169.383L164.295 164.936H161.781L158.617 168.794H158.143V164.936H155.954V174.542H158.143V170.394H158.635ZM168.462 174.7C169.728 174.7 170.747 174.155 171.275 173.224H171.424V174.542H173.586V167.977C173.586 165.946 172.197 164.751 169.728 164.751C167.443 164.751 165.896 165.823 165.685 167.44L165.676 167.52H167.741L167.75 167.484C167.97 166.852 168.62 166.491 169.622 166.491C170.8 166.491 171.424 167.019 171.424 167.977V168.803L168.954 168.952C166.616 169.093 165.307 170.095 165.307 171.809V171.826C165.307 173.575 166.634 174.7 168.462 174.7ZM167.469 171.721V171.703C167.469 170.912 168.04 170.464 169.262 170.385L171.424 170.244V171.018C171.424 172.16 170.448 173.021 169.13 173.021C168.163 173.021 167.469 172.538 167.469 171.721ZM177.648 168.188C178.457 168.188 179.045 167.581 179.045 166.808C179.045 166.025 178.457 165.419 177.648 165.419C176.848 165.419 176.25 166.025 176.25 166.808C176.25 167.581 176.848 168.188 177.648 168.188ZM177.648 174.718C178.457 174.718 179.045 174.103 179.045 173.329C179.045 172.547 178.457 171.94 177.648 171.94C176.848 171.94 176.25 172.547 176.25 173.329C176.25 174.103 176.848 174.718 177.648 174.718ZM22.457 197.542V187.936H20.2686V191.864C19.917 192.225 19.2402 192.479 18.2822 192.479C17.0869 192.479 16.4805 191.812 16.4805 190.625V187.936H14.292V190.81C14.292 192.945 15.584 194.325 17.8691 194.325C18.8535 194.325 19.6006 194.088 20.1104 193.701H20.2686V197.542H22.457ZM32.3548 187.936H24.2513V189.632H27.2044V197.542H29.3929V189.632H32.3548V187.936ZM37.9986 197.735C40.8726 197.735 42.6216 195.854 42.6216 192.743V192.726C42.6216 189.632 40.8638 187.751 37.9986 187.751C35.1421 187.751 33.3755 189.641 33.3755 192.726V192.743C33.3755 195.854 35.1158 197.735 37.9986 197.735ZM37.9986 195.96C36.4781 195.96 35.608 194.773 35.608 192.752V192.734C35.608 190.713 36.4781 189.518 37.9986 189.518C39.5103 189.518 40.3804 190.713 40.3804 192.734V192.752C40.3804 194.773 39.5191 195.96 37.9986 195.96ZM50.13 200.047V197.542H57.0206V200.047H59.0245V195.828H57.548V187.936H50.3146L49.9806 192.98C49.8927 194.272 49.5939 195.406 48.882 195.828H48.1261V200.047H50.13ZM55.3507 195.828H51.2198V195.679C51.6417 195.072 51.8614 194.149 51.9405 193.095L52.1866 189.649H55.3507V195.828ZM64.7211 197.735C67.3314 197.735 68.6146 196.232 68.9223 194.993L68.9486 194.914H66.8656L66.8393 194.976C66.6283 195.415 65.9516 196.013 64.765 196.013C63.2797 196.013 62.348 195.011 62.3217 193.288H69.0365V192.567C69.0365 189.667 67.349 187.751 64.6156 187.751C61.8822 187.751 60.1332 189.729 60.1332 192.752V192.761C60.1332 195.819 61.8646 197.735 64.7211 197.735ZM64.642 189.465C65.8637 189.465 66.7514 190.247 66.9008 191.82H62.3393C62.5062 190.291 63.4203 189.465 64.642 189.465ZM73.6608 193.385L73.9333 189.632H76.737V197.542H78.9255V187.936H72.0348L71.7009 193.209C71.613 194.589 71.3054 195.705 70.4264 195.705C70.1804 195.705 69.943 195.67 69.8464 195.644V197.524C69.987 197.568 70.277 197.63 70.6725 197.63C72.6237 197.63 73.4762 196.153 73.6608 193.385ZM84.1123 197.7C85.3779 197.7 86.3974 197.155 86.9248 196.224H87.0742V197.542H89.2363V190.977C89.2363 188.946 87.8476 187.751 85.3779 187.751C83.0927 187.751 81.5459 188.823 81.3349 190.44L81.3261 190.52H83.3916L83.4004 190.484C83.6201 189.852 84.2705 189.491 85.2724 189.491C86.4502 189.491 87.0742 190.019 87.0742 190.977V191.803L84.6045 191.952C82.2666 192.093 80.957 193.095 80.957 194.809V194.826C80.957 196.575 82.2841 197.7 84.1123 197.7ZM83.1191 194.721V194.703C83.1191 193.912 83.6904 193.464 84.9121 193.385L87.0742 193.244V194.018C87.0742 195.16 86.0986 196.021 84.7802 196.021C83.8134 196.021 83.1191 195.538 83.1191 194.721ZM99.0901 187.936H90.9866V189.632H93.9397V197.542H96.1282V189.632H99.0901V187.936ZM100.876 197.542H104.962C107.204 197.542 108.636 196.241 108.636 194.202V194.185C108.636 192.146 107.204 190.836 104.962 190.836H103.064V187.936H100.876V197.542ZM104.681 192.523C105.745 192.523 106.43 193.183 106.43 194.176V194.193C106.43 195.178 105.753 195.854 104.681 195.854H103.064V192.523H104.681ZM112.443 193.587H114.482V193.077C114.482 192.198 114.807 191.741 115.959 191.073C117.154 190.361 117.822 189.421 117.822 188.085V188.067C117.822 186.143 116.214 184.754 113.805 184.754C111.195 184.754 109.762 186.266 109.701 188.322V188.34L111.749 188.331L111.766 188.322C111.828 187.241 112.557 186.547 113.691 186.547C114.799 186.547 115.537 187.224 115.537 188.146V188.164C115.537 189.025 115.168 189.5 114.078 190.159C112.865 190.871 112.355 191.662 112.434 192.963L112.443 193.587ZM113.559 197.762C114.456 197.762 115.018 197.217 115.018 196.382C115.018 195.538 114.456 194.993 113.559 194.993C112.68 194.993 112.1 195.538 112.1 196.382C112.1 197.217 112.68 197.762 113.559 197.762Z" fill="white"/>
</g>
</svg>
