<svg width="344" height="48" viewBox="0 0 344 48" fill="none" xmlns="http://www.w3.org/2000/svg">
<rect x="0.5" y="0.5" width="343" height="47" rx="23.5" fill="#2C2C2C" stroke="#2C2C2C"/>
<path d="M29.0322 17.5743L29.1022 18.0207L29.3859 17.6691L35.6031 9.96494L32.0398 19.2013L31.8772 19.6228L32.2987 19.4602L41.5351 15.8969L33.8309 22.1141L33.4793 22.3978L33.9256 22.4678L43.7063 24L33.9256 25.5322L33.4793 25.6022L33.8309 25.8859L41.5351 32.1031L32.2987 28.5398L31.8772 28.3772L32.0398 28.7987L35.6031 38.0351L29.3859 30.3309L29.1022 29.9793L29.0322 30.4256L27.5 40.2063L25.9678 30.4256L25.8978 29.9793L25.6141 30.3309L19.3969 38.0351L22.9602 28.7987L23.1228 28.3772L22.7013 28.5398L13.4649 32.1031L21.1691 25.8859L21.5207 25.6022L21.0743 25.5322L11.2937 24L21.0743 22.4678L21.5207 22.3978L21.1691 22.1141L13.4649 15.8968L22.7013 19.4602L23.1228 19.6228L22.9602 19.2013L19.3968 9.96493L25.6141 17.6691L25.8978 18.0207L25.9678 17.5743L27.5 7.79371L29.0322 17.5743Z" fill="#2C2C2C" stroke="#2C2C2C" stroke-width="0.400458"/>
<path d="M27.5 6.5L29.2301 17.5434L36.25 8.84456L32.2266 19.2734L42.6554 15.25L33.9566 22.2699L45 24L33.9566 25.7301L42.6554 32.75L32.2266 28.7266L36.25 39.1554L29.2301 30.4566L27.5 41.5L25.7699 30.4566L18.75 39.1554L22.7734 28.7266L12.3446 32.75L21.0434 25.7301L10 24L21.0434 22.2699L12.3446 15.25L22.7734 19.2734L18.75 8.84456L25.7699 17.5434L27.5 6.5Z" fill="#33FF00"/>
</svg>
