<svg width="344" height="48" viewBox="0 0 344 48" fill="none" xmlns="http://www.w3.org/2000/svg">
<rect x="0.5" y="0.5" width="343" height="47" rx="23.5" fill="white" stroke="#2C2C2C"/>
<path d="M29.0322 17.5743L29.1022 18.0207L29.3859 17.6691L35.6031 9.96494L32.0398 19.2013L31.8772 19.6228L32.2987 19.4602L41.5351 15.8969L33.8309 22.1141L33.4793 22.3978L33.9256 22.4678L43.7063 24L33.9256 25.5322L33.4793 25.6022L33.8309 25.8859L41.5351 32.1031L32.2987 28.5398L31.8772 28.3772L32.0398 28.7987L35.6031 38.0351L29.3859 30.3309L29.1022 29.9793L29.0322 30.4256L27.5 40.2063L25.9678 30.4256L25.8978 29.9793L25.6141 30.3309L19.3969 38.0351L22.9602 28.7987L23.1228 28.3772L22.7013 28.5398L13.4649 32.1031L21.1691 25.8859L21.5207 25.6022L21.0743 25.5322L11.2937 24L21.0743 22.4678L21.5207 22.3978L21.1691 22.1141L13.4649 15.8968L22.7013 19.4602L23.1228 19.6228L22.9602 19.2013L19.3968 9.96493L25.6141 17.6691L25.8978 18.0207L25.9678 17.5743L27.5 7.79371L29.0322 17.5743Z" fill="white" stroke="#2C2C2C" stroke-width="0.400458"/>
</svg>
