<svg width="21" height="20" viewBox="0 0 21 20" fill="none" xmlns="http://www.w3.org/2000/svg">
<path d="M10.8262 0C8.26256 0.00731219 5.79966 0.998914 3.94617 2.77V1C3.94617 0.734784 3.84082 0.48043 3.65328 0.292893C3.46574 0.105357 3.21139 0 2.94617 0C2.68096 0 2.4266 0.105357 2.23907 0.292893C2.05153 0.48043 1.94617 0.734784 1.94617 1V5.5C1.94617 5.76522 2.05153 6.01957 2.23907 6.20711C2.4266 6.39464 2.68096 6.5 2.94617 6.5H7.44617C7.71139 6.5 7.96574 6.39464 8.15328 6.20711C8.34081 6.01957 8.44617 5.76522 8.44617 5.5C8.44617 5.23478 8.34081 4.98043 8.15328 4.79289C7.96574 4.60536 7.71139 4.5 7.44617 4.5H5.04617C6.33195 3.15636 8.04568 2.30265 9.89271 2.08567C11.7397 1.86868 13.6047 2.30198 15.1668 3.31104C16.729 4.32011 17.8908 5.84191 18.4525 7.61479C19.0142 9.38767 18.9407 11.3009 18.2446 13.0254C17.5485 14.7499 16.2733 16.1781 14.6383 17.0643C13.0033 17.9505 11.1107 18.2394 9.28573 17.8813C7.4608 17.5232 5.81764 16.5405 4.63876 15.1022C3.45989 13.6638 2.81896 11.8597 2.82617 10C2.82617 9.73478 2.72082 9.48043 2.53328 9.29289C2.34574 9.10536 2.09139 9 1.82617 9C1.56096 9 1.3066 9.10536 1.11907 9.29289C0.931529 9.48043 0.826172 9.73478 0.826172 10C0.826172 11.9778 1.41266 13.9112 2.51148 15.5557C3.61029 17.2002 5.17208 18.4819 6.99934 19.2388C8.8266 19.9957 10.8373 20.1937 12.7771 19.8079C14.7169 19.422 16.4987 18.4696 17.8972 17.0711C19.2958 15.6725 20.2482 13.8907 20.634 11.9509C21.0199 10.0111 20.8218 8.00043 20.065 6.17317C19.3081 4.3459 18.0264 2.78412 16.3819 1.6853C14.7374 0.58649 12.804 0 10.8262 0ZM10.8262 6C10.561 6 10.3066 6.10536 10.1191 6.29289C9.93153 6.48043 9.82617 6.73478 9.82617 7V10C9.82617 10.2652 9.93153 10.5196 10.1191 10.7071C10.3066 10.8946 10.561 11 10.8262 11H12.8262C13.0914 11 13.3457 10.8946 13.5333 10.7071C13.7208 10.5196 13.8262 10.2652 13.8262 10C13.8262 9.73478 13.7208 9.48043 13.5333 9.29289C13.3457 9.10536 13.0914 9 12.8262 9H11.8262V7C11.8262 6.73478 11.7208 6.48043 11.5333 6.29289C11.3457 6.10536 11.0914 6 10.8262 6Z" fill="#2C2C2C"/>
</svg>
