<svg width="21" height="22" viewBox="0 0 21 22" fill="none" xmlns="http://www.w3.org/2000/svg">
<path d="M19.9958 1.06C19.279 0.936533 18.5531 0.87298 17.8258 0.869999C15.3441 0.867965 12.9143 1.57957 10.8258 2.92C8.73192 1.59717 6.30242 0.90303 3.82577 0.919999C3.09841 0.92298 2.37257 0.986533 1.65577 1.11C1.42097 1.15048 1.20835 1.27346 1.05618 1.45679C0.904014 1.64013 0.822305 1.87177 0.825768 2.11V14.11C0.823627 14.2569 0.853894 14.4025 0.914418 14.5364C0.974942 14.6703 1.06423 14.7893 1.17594 14.8847C1.28765 14.9802 1.41903 15.0499 1.56072 15.0888C1.70242 15.1278 1.85096 15.135 1.99577 15.11C3.42879 14.8619 4.89697 14.9031 6.31383 15.2311C7.7307 15.5591 9.06759 16.1674 10.2458 17.02L10.3658 17.09H10.4758C10.5867 17.1362 10.7056 17.16 10.8258 17.16C10.9459 17.16 11.0649 17.1362 11.1758 17.09H11.2858L11.4058 17.02C12.5757 16.1483 13.9088 15.5203 15.3259 15.1734C16.7431 14.8264 18.2154 14.7674 19.6558 15C19.8006 15.025 19.9491 15.0178 20.0908 14.9788C20.2325 14.9399 20.3639 14.8702 20.4756 14.7747C20.5873 14.6793 20.6766 14.5603 20.7371 14.4264C20.7976 14.2925 20.8279 14.1469 20.8258 14V2C20.8154 1.77215 20.7274 1.55471 20.5764 1.38374C20.4254 1.21276 20.2206 1.09854 19.9958 1.06ZM9.82577 14.35C7.97565 13.3767 5.91629 12.8687 3.82577 12.87C3.49577 12.87 3.16577 12.87 2.82577 12.87V2.87C3.15883 2.8508 3.49271 2.8508 3.82577 2.87C5.95915 2.86764 8.04598 3.49369 9.82577 4.67V14.35ZM18.8258 12.91C18.4858 12.91 18.1558 12.91 17.8258 12.91C15.7352 12.9087 13.6759 13.4167 11.8258 14.39V4.67C13.6056 3.49369 15.6924 2.86764 17.8258 2.87C18.1588 2.8508 18.4927 2.8508 18.8258 2.87V12.91ZM19.9958 17.06C19.279 16.9365 18.5531 16.873 17.8258 16.87C15.3441 16.868 12.9143 17.5796 10.8258 18.92C8.73728 17.5796 6.3074 16.868 3.82577 16.87C3.09841 16.873 2.37257 16.9365 1.65577 17.06C1.5256 17.0807 1.40079 17.1268 1.28853 17.1959C1.17627 17.265 1.07877 17.3555 1.00163 17.4624C0.9245 17.5693 0.869254 17.6903 0.839072 17.8186C0.80889 17.9469 0.804369 18.0799 0.825768 18.21C0.876587 18.4697 1.02826 18.6986 1.24756 18.8467C1.46686 18.9948 1.73591 19.0499 1.99577 19C3.42879 18.7519 4.89697 18.7931 6.31383 19.1211C7.7307 19.4491 9.06759 20.0574 10.2458 20.91C10.4151 21.0306 10.6179 21.0954 10.8258 21.0954C11.0337 21.0954 11.2364 21.0306 11.4058 20.91C12.5839 20.0574 13.9208 19.4491 15.3377 19.1211C16.7546 18.7931 18.2227 18.7519 19.6558 19C19.9156 19.0499 20.1847 18.9948 20.404 18.8467C20.6233 18.6986 20.7749 18.4697 20.8258 18.21C20.8472 18.0799 20.8426 17.9469 20.8125 17.8186C20.7823 17.6903 20.727 17.5693 20.6499 17.4624C20.5728 17.3555 20.4753 17.265 20.363 17.1959C20.2507 17.1268 20.1259 17.0807 19.9958 17.06V17.06Z" fill="#2C2C2C"/>
</svg>
