<svg width="19" height="21" viewBox="0 0 19 21" fill="none" xmlns="http://www.w3.org/2000/svg">
<path d="M17.8258 7.00001L11.8258 1.74001C11.2758 1.24805 10.5637 0.976074 9.82578 0.976074C9.08785 0.976074 8.3758 1.24805 7.82578 1.74001L1.82578 7.00001C1.50815 7.28408 1.25468 7.63256 1.08225 8.02225C0.909822 8.41194 0.822391 8.83389 0.825778 9.26001V18C0.825778 18.7957 1.14185 19.5587 1.70446 20.1213C2.26707 20.6839 3.03013 21 3.82578 21H15.8258C16.6214 21 17.3845 20.6839 17.9471 20.1213C18.5097 19.5587 18.8258 18.7957 18.8258 18V9.25001C18.8277 8.82557 18.7396 8.40555 18.5672 8.01769C18.3949 7.62983 18.1421 7.28296 17.8258 7.00001V7.00001ZM11.8258 19H7.82578V14C7.82578 13.7348 7.93114 13.4804 8.11867 13.2929C8.30621 13.1054 8.56056 13 8.82578 13H10.8258C11.091 13 11.3453 13.1054 11.5329 13.2929C11.7204 13.4804 11.8258 13.7348 11.8258 14V19ZM16.8258 18C16.8258 18.2652 16.7204 18.5196 16.5329 18.7071C16.3453 18.8946 16.091 19 15.8258 19H13.8258V14C13.8258 13.2044 13.5097 12.4413 12.9471 11.8787C12.3845 11.3161 11.6214 11 10.8258 11H8.82578C8.03013 11 7.26707 11.3161 6.70446 11.8787C6.14185 12.4413 5.82578 13.2044 5.82578 14V19H3.82578C3.56056 19 3.30621 18.8946 3.11867 18.7071C2.93114 18.5196 2.82578 18.2652 2.82578 18V9.25001C2.82596 9.10802 2.85637 8.9677 2.915 8.83839C2.97362 8.70907 3.05911 8.59372 3.16578 8.50001L9.16578 3.25001C9.34827 3.08969 9.58287 3.00127 9.82578 3.00127C10.0687 3.00127 10.3033 3.08969 10.4858 3.25001L16.4858 8.50001C16.5924 8.59372 16.6779 8.70907 16.7366 8.83839C16.7952 8.9677 16.8256 9.10802 16.8258 9.25001V18Z" fill="black" fill-opacity="0.4"/>
</svg>
