<svg width="19" height="20" viewBox="0 0 19 20" fill="none" xmlns="http://www.w3.org/2000/svg">
<path d="M18.5362 14.71L16.1162 12.29C16.0232 12.1963 15.9126 12.1219 15.7907 12.0711C15.6689 12.0203 15.5382 11.9942 15.4062 11.9942C15.2742 11.9942 15.1435 12.0203 15.0216 12.0711C14.8997 12.1219 14.7891 12.1963 14.6962 12.29L11.1162 15.87C11.0235 15.9634 10.9502 16.0743 10.9004 16.1961C10.8506 16.3179 10.8254 16.4484 10.8262 16.58V19C10.8262 19.2652 10.9315 19.5196 11.1191 19.7071C11.3066 19.8946 11.561 20 11.8262 20H14.2462C14.3778 20.0008 14.5082 19.9755 14.6301 19.9258C14.7519 19.876 14.8627 19.8027 14.9562 19.71L18.5362 16.13C18.6299 16.037 18.7043 15.9264 18.7551 15.8046C18.8058 15.6827 18.832 15.552 18.832 15.42C18.832 15.288 18.8058 15.1573 18.7551 15.0354C18.7043 14.9136 18.6299 14.803 18.5362 14.71V14.71ZM13.8262 18H12.8262V17L15.4062 14.42L16.4062 15.42L13.8262 18ZM7.82617 18H3.82617C3.56096 18 3.3066 17.8946 3.11907 17.7071C2.93153 17.5196 2.82617 17.2652 2.82617 17V3C2.82617 2.73478 2.93153 2.48043 3.11907 2.29289C3.3066 2.10536 3.56096 2 3.82617 2H8.82617V5C8.82617 5.79565 9.14224 6.55871 9.70485 7.12132C10.2675 7.68393 11.0305 8 11.8262 8H14.8262V9C14.8262 9.26522 14.9315 9.51957 15.1191 9.70711C15.3066 9.89464 15.561 10 15.8262 10C16.0914 10 16.3457 9.89464 16.5333 9.70711C16.7208 9.51957 16.8262 9.26522 16.8262 9V7C16.8262 7 16.8262 7 16.8262 6.94C16.8158 6.84813 16.7956 6.75763 16.7662 6.67V6.58C16.7181 6.47718 16.654 6.38267 16.5762 6.3L10.5762 0.3C10.4935 0.222216 10.399 0.158081 10.2962 0.11C10.2663 0.10576 10.236 0.10576 10.2062 0.11L9.88617 0H3.82617C3.03052 0 2.26746 0.316071 1.70485 0.87868C1.14224 1.44129 0.826172 2.20435 0.826172 3V17C0.826172 17.7956 1.14224 18.5587 1.70485 19.1213C2.26746 19.6839 3.03052 20 3.82617 20H7.82617C8.09139 20 8.34574 19.8946 8.53328 19.7071C8.72081 19.5196 8.82617 19.2652 8.82617 19C8.82617 18.7348 8.72081 18.4804 8.53328 18.2929C8.34574 18.1054 8.09139 18 7.82617 18ZM10.8262 3.41L13.4162 6H11.8262C11.561 6 11.3066 5.89464 11.1191 5.70711C10.9315 5.51957 10.8262 5.26522 10.8262 5V3.41ZM5.82617 12H11.8262C12.0914 12 12.3457 11.8946 12.5333 11.7071C12.7208 11.5196 12.8262 11.2652 12.8262 11C12.8262 10.7348 12.7208 10.4804 12.5333 10.2929C12.3457 10.1054 12.0914 10 11.8262 10H5.82617C5.56096 10 5.3066 10.1054 5.11907 10.2929C4.93153 10.4804 4.82617 10.7348 4.82617 11C4.82617 11.2652 4.93153 11.5196 5.11907 11.7071C5.3066 11.8946 5.56096 12 5.82617 12ZM5.82617 8H6.82617C7.09139 8 7.34574 7.89464 7.53328 7.70711C7.72081 7.51957 7.82617 7.26522 7.82617 7C7.82617 6.73478 7.72081 6.48043 7.53328 6.29289C7.34574 6.10536 7.09139 6 6.82617 6H5.82617C5.56096 6 5.3066 6.10536 5.11907 6.29289C4.93153 6.48043 4.82617 6.73478 4.82617 7C4.82617 7.26522 4.93153 7.51957 5.11907 7.70711C5.3066 7.89464 5.56096 8 5.82617 8ZM7.82617 14H5.82617C5.56096 14 5.3066 14.1054 5.11907 14.2929C4.93153 14.4804 4.82617 14.7348 4.82617 15C4.82617 15.2652 4.93153 15.5196 5.11907 15.7071C5.3066 15.8946 5.56096 16 5.82617 16H7.82617C8.09139 16 8.34574 15.8946 8.53328 15.7071C8.72081 15.5196 8.82617 15.2652 8.82617 15C8.82617 14.7348 8.72081 14.4804 8.53328 14.2929C8.34574 14.1054 8.09139 14 7.82617 14Z" fill="#2C2C2C"/>
</svg>
