<svg width="8" height="15" viewBox="0 0 8 15" fill="none" xmlns="http://www.w3.org/2000/svg">
<path d="M7.53974 6.70837L1.87974 1.05837C1.78677 0.964643 1.67617 0.890249 1.55431 0.83948C1.43246 0.788712 1.30175 0.762573 1.16974 0.762573C1.03773 0.762573 0.90702 0.788712 0.785161 0.83948C0.663302 0.890249 0.552701 0.964643 0.459738 1.05837C0.273487 1.24573 0.168945 1.49919 0.168945 1.76337C0.168945 2.02756 0.273487 2.28101 0.459738 2.46837L5.40974 7.46837L0.459738 12.4184C0.273487 12.6057 0.168945 12.8592 0.168945 13.1234C0.168945 13.3876 0.273487 13.641 0.459738 13.8284C0.552352 13.9229 0.662797 13.998 0.784673 14.0495C0.906548 14.101 1.03743 14.1278 1.16974 14.1284C1.30205 14.1278 1.43293 14.101 1.5548 14.0495C1.67668 13.998 1.78712 13.9229 1.87974 13.8284L7.53974 8.17837C7.64124 8.08473 7.72225 7.97108 7.77766 7.84458C7.83307 7.71808 7.86167 7.58147 7.86167 7.44337C7.86167 7.30527 7.83307 7.16866 7.77766 7.04217C7.72225 6.91567 7.64124 6.80201 7.53974 6.70837V6.70837Z" fill="black" fill-opacity="0.4"/>
</svg>
