<svg width="49" height="49" viewBox="0 0 49 49" fill="none" xmlns="http://www.w3.org/2000/svg">
<rect x="0.895996" y="0.161133" width="48" height="48" rx="24" fill="#2C2C2C"/>
<path d="M28.2862 24.8711C29.2666 24.0998 29.9822 23.0421 30.3334 21.8451C30.6847 20.6481 30.6541 19.3714 30.246 18.1926C29.8378 17.0138 29.0724 15.9915 28.0562 15.268C27.0401 14.5445 25.8236 14.1556 24.5762 14.1556C23.3287 14.1556 22.1123 14.5445 21.0961 15.268C20.0799 15.9915 19.3145 17.0138 18.9064 18.1926C18.4982 19.3714 18.4677 20.6481 18.8189 21.8451C19.1702 23.0421 19.8858 24.0998 20.8662 24.8711C19.1862 25.5442 17.7205 26.6605 16.6251 28.1011C15.5297 29.5416 14.8457 31.2524 14.6462 33.0511C14.6317 33.1825 14.6433 33.3153 14.6802 33.4422C14.7171 33.569 14.7786 33.6874 14.8613 33.7905C15.0282 33.9986 15.271 34.132 15.5362 34.1611C15.8014 34.1903 16.0673 34.1129 16.2755 33.946C16.4837 33.7791 16.617 33.5364 16.6462 33.2711C16.8658 31.3163 17.7979 29.5109 19.2644 28.1999C20.7309 26.8889 22.6291 26.1642 24.5962 26.1642C26.5633 26.1642 28.4614 26.8889 29.9279 28.1999C31.3945 29.5109 32.3266 31.3163 32.5462 33.2711C32.5734 33.5169 32.6906 33.7438 32.8753 33.9081C33.0599 34.0725 33.299 34.1626 33.5462 34.1611H33.6562C33.9183 34.131 34.1579 33.9984 34.3227 33.7924C34.4876 33.5863 34.5643 33.3235 34.5362 33.0611C34.3357 31.2573 33.648 29.5421 32.547 28.0993C31.446 26.6566 29.9731 25.5406 28.2862 24.8711ZM24.5762 24.1611C23.785 24.1611 23.0117 23.9265 22.3539 23.487C21.6961 23.0475 21.1834 22.4228 20.8807 21.6919C20.5779 20.961 20.4987 20.1567 20.653 19.3808C20.8074 18.6049 21.1883 17.8921 21.7477 17.3327C22.3072 16.7733 23.0199 16.3923 23.7958 16.238C24.5717 16.0837 25.376 16.1629 26.1069 16.4656C26.8378 16.7684 27.4625 17.2811 27.902 17.9389C28.3416 18.5967 28.5762 19.37 28.5762 20.1611C28.5762 21.222 28.1547 22.2394 27.4046 22.9896C26.6545 23.7397 25.637 24.1611 24.5762 24.1611Z" fill="white"/>
</svg>
