<svg width="390" height="730" viewBox="0 0 390 730" fill="none" xmlns="http://www.w3.org/2000/svg">
<rect width="390" height="730" rx="12" fill="#2C2C2C"/>
<path d="M25.1641 603H56.8223V577.635H50.3887V597.814H44.2188V577.635H37.7852V597.814H31.6152V577.635H25.1641V603ZM67.6341 603.299C70.1302 603.299 72.222 602.244 73.0833 600.574H73.4173V603H79.5345V589.658C79.5345 585.439 76.4583 582.979 71.0618 582.979C65.7708 582.979 62.3958 585.352 62.0442 588.955L62.0266 589.166H67.6692L67.7044 589.078C68.0735 588.094 69.0755 587.549 70.7102 587.549C72.4329 587.549 73.4173 588.34 73.4173 589.658V591.188L69.1458 591.434C64.1009 591.75 61.3235 593.807 61.3235 597.357V597.393C61.3235 600.961 63.8899 603.299 67.6341 603.299ZM67.3177 596.953V596.918C67.3177 595.758 68.2845 595.02 70.1302 594.896L73.4173 594.686V595.969C73.4173 597.656 71.888 598.957 69.9192 598.957C68.3548 598.957 67.3177 598.184 67.3177 596.953ZM98.4322 588.006V583.436H84.317V603H90.5572V588.006H98.4322ZM116.944 603H123.378V577.635H116.944L110.493 582.029V587.584L116.61 583.453H116.944V603ZM134.102 591.311C136.211 591.311 137.635 589.852 137.635 587.865C137.635 585.879 136.211 584.402 134.102 584.402C132.01 584.402 130.586 585.879 130.586 587.865C130.586 589.852 132.01 591.311 134.102 591.311ZM134.102 603.58C136.211 603.58 137.635 602.104 137.635 600.117C137.635 598.131 136.211 596.672 134.102 596.672C132.01 596.672 130.586 598.131 130.586 600.117C130.586 602.104 132.01 603.58 134.102 603.58Z" fill="#33FF00"/>
<path d="M24.2031 642H27.2266V634.664H35.4531V642H38.4648V625.09H35.4531V632.121H27.2266V625.09H24.2031V642ZM45.7903 642.211C47.4778 642.211 48.8372 641.484 49.5403 640.242H49.7395V642H52.6223V633.246C52.6223 630.539 50.7708 628.945 47.4778 628.945C44.4309 628.945 42.3684 630.375 42.0872 632.531L42.0755 632.637H44.8294L44.8411 632.59C45.1341 631.746 46.0012 631.266 47.3372 631.266C48.9075 631.266 49.7395 631.969 49.7395 633.246V634.348L46.4466 634.547C43.3294 634.734 41.5833 636.07 41.5833 638.355V638.379C41.5833 640.711 43.3528 642.211 45.7903 642.211ZM44.4661 638.238V638.215C44.4661 637.16 45.2278 636.562 46.8567 636.457L49.7395 636.27V637.301C49.7395 638.824 48.4387 639.973 46.6809 639.973C45.3919 639.973 44.4661 639.328 44.4661 638.238ZM60.8736 642.27C64.1666 642.27 66.2642 640.617 66.2642 638.238V638.215C66.2642 636.785 65.397 635.754 63.6158 635.402V635.203C64.9986 634.887 65.8541 633.844 65.8541 632.496V632.473C65.8541 630.305 63.9791 628.934 60.9439 628.934C57.8033 628.934 56.0103 630.445 55.7173 632.684L55.7056 632.777H58.4712L58.483 632.719C58.6587 631.793 59.5377 631.195 60.8502 631.195C62.2916 631.195 63.0064 631.898 63.0064 632.824V632.848C63.0064 633.902 62.3033 634.512 60.815 634.512H58.9869V636.48H60.8267C62.4791 636.48 63.3697 637.055 63.3697 638.191V638.215C63.3697 639.27 62.4322 640.008 60.8384 640.008C59.4673 640.008 58.4947 639.434 58.2252 638.449L58.2017 638.367H55.3658L55.3775 638.473C55.6587 640.957 57.9673 642.27 60.8736 642.27ZM74.5741 642.258C78.4061 642.258 80.7381 639.75 80.7381 635.602V635.578C80.7381 631.453 78.3944 628.945 74.5741 628.945C70.7655 628.945 68.41 631.465 68.41 635.578V635.602C68.41 639.75 70.7303 642.258 74.5741 642.258ZM74.5741 639.891C72.5467 639.891 71.3866 638.309 71.3866 635.613V635.59C71.3866 632.895 72.5467 631.301 74.5741 631.301C76.5897 631.301 77.7498 632.895 77.7498 635.59V635.613C77.7498 638.309 76.6014 639.891 74.5741 639.891ZM83.6105 642H89.7511C92.5988 642 94.3331 640.535 94.3331 638.355V638.332C94.3331 636.785 93.2198 635.613 91.5323 635.426V635.227C92.8331 635.004 93.7589 633.82 93.7589 632.484V632.461C93.7589 630.492 92.2472 629.191 89.6691 629.191H83.6105V642ZM86.4933 634.512V631.207H88.9777C90.2667 631.207 90.8878 631.863 90.8878 632.836V632.859C90.8878 633.926 90.1847 634.512 88.7433 634.512H86.4933ZM86.4933 639.984V636.469H88.9542C90.548 636.469 91.3448 637.043 91.3448 638.203V638.227C91.3448 639.328 90.63 639.984 89.2238 639.984H86.4933ZM97.2992 642H100.182L105.573 633.375H105.819V642H108.702V629.191H105.819L100.416 637.77H100.182V629.191H97.2992V642ZM124.313 642.422C127.97 642.422 130.536 640.02 130.536 636.504V636.48C130.536 633.246 128.251 630.902 125.099 630.902C123.505 630.902 122.192 631.582 121.489 632.719H121.29L121.759 627.574H129.552V625.09H119.403L118.583 634.992H121.173C121.372 634.617 121.653 634.289 121.958 634.031C122.579 633.469 123.399 633.188 124.349 633.188C126.282 633.188 127.665 634.57 127.665 636.539V636.562C127.665 638.555 126.306 639.949 124.325 639.949C122.591 639.949 121.313 638.848 121.091 637.465L121.079 637.383H118.29L118.302 637.535C118.524 640.312 120.856 642.422 124.313 642.422ZM139.703 642H142.621V631.453H147.906V642H150.824V629.191H139.703V642ZM154.341 646.254H157.259V639.961H157.458C158.126 641.344 159.591 642.211 161.348 642.211C164.595 642.211 166.61 639.691 166.61 635.613V635.59C166.61 631.535 164.559 628.98 161.348 628.98C159.555 628.98 158.161 629.801 157.458 631.195H157.259V629.191H154.341V646.254ZM160.434 639.75C158.454 639.75 157.223 638.168 157.223 635.602V635.578C157.223 633.012 158.454 631.441 160.434 631.441C162.427 631.441 163.634 633.012 163.634 635.59V635.613C163.634 638.18 162.427 639.75 160.434 639.75ZM174.99 642.258C178.471 642.258 180.182 640.254 180.592 638.602L180.627 638.496H177.85L177.815 638.578C177.533 639.164 176.631 639.961 175.049 639.961C173.068 639.961 171.826 638.625 171.791 636.328H180.744V635.367C180.744 631.5 178.494 628.945 174.85 628.945C171.205 628.945 168.873 631.582 168.873 635.613V635.625C168.873 639.703 171.182 642.258 174.99 642.258ZM174.885 631.23C176.514 631.23 177.697 632.273 177.897 634.371H171.815C172.037 632.332 173.256 631.23 174.885 631.23ZM184.718 645.34V642H193.906V645.34H196.577V639.715H194.609V629.191H184.964L184.519 635.918C184.402 637.641 184.003 639.152 183.054 639.715H182.046V645.34H184.718ZM191.679 639.715H186.171V639.516C186.734 638.707 187.027 637.477 187.132 636.07L187.46 631.477H191.679V639.715ZM201.559 642V633.258H201.782L205.298 641.426H207.383L210.911 633.258H211.133V642H213.923V629.191H210.278L206.481 638.109H206.27L202.485 629.191H198.77V642H201.559ZM222.924 642.258C226.404 642.258 228.115 640.254 228.525 638.602L228.56 638.496H225.783L225.748 638.578C225.467 639.164 224.564 639.961 222.982 639.961C221.002 639.961 219.76 638.625 219.725 636.328H228.678V635.367C228.678 631.5 226.428 628.945 222.783 628.945C219.139 628.945 216.807 631.582 216.807 635.613V635.625C216.807 639.703 219.115 642.258 222.924 642.258ZM222.818 631.23C224.447 631.23 225.631 632.273 225.83 634.371H219.748C219.971 632.332 221.189 631.23 222.818 631.23ZM240.644 629.191H229.839V631.453H233.777V642H236.695V631.453H240.644V629.191ZM248.262 642.258C252.094 642.258 254.426 639.75 254.426 635.602V635.578C254.426 631.453 252.083 628.945 248.262 628.945C244.454 628.945 242.098 631.465 242.098 635.578V635.602C242.098 639.75 244.418 642.258 248.262 642.258ZM248.262 639.891C246.235 639.891 245.075 638.309 245.075 635.613V635.59C245.075 632.895 246.235 631.301 248.262 631.301C250.278 631.301 251.438 632.895 251.438 635.59V635.613C251.438 638.309 250.29 639.891 248.262 639.891ZM257.299 642H263.439C266.287 642 268.021 640.535 268.021 638.355V638.332C268.021 636.785 266.908 635.613 265.22 635.426V635.227C266.521 635.004 267.447 633.82 267.447 632.484V632.461C267.447 630.492 265.935 629.191 263.357 629.191H257.299V642ZM260.181 634.512V631.207H262.666C263.955 631.207 264.576 631.863 264.576 632.836V632.859C264.576 633.926 263.873 634.512 262.431 634.512H260.181ZM260.181 639.984V636.469H262.642C264.236 636.469 265.033 637.043 265.033 638.203V638.227C265.033 639.328 264.318 639.984 262.912 639.984H260.181ZM270.05 646.465H272.042L274.081 639.422H271.069L270.05 646.465ZM27.4609 665.469L31.7266 671H35.2539L29.8398 664.121L35.0078 658.191H31.6562L27.4375 663.336H26.8047V658.191H23.8867V671H26.8047V665.469H27.4609ZM42.5325 671.258C46.3645 671.258 48.6966 668.75 48.6966 664.602V664.578C48.6966 660.453 46.3528 657.945 42.5325 657.945C38.7239 657.945 36.3684 660.465 36.3684 664.578V664.602C36.3684 668.75 38.6888 671.258 42.5325 671.258ZM42.5325 668.891C40.5052 668.891 39.345 667.309 39.345 664.613V664.59C39.345 661.895 40.5052 660.301 42.5325 660.301C44.5481 660.301 45.7083 661.895 45.7083 664.59V664.613C45.7083 667.309 44.5598 668.891 42.5325 668.891ZM60.6041 658.191H49.7994V660.453H53.7369V671H56.6548V660.453H60.6041V658.191ZM68.2225 671.258C72.0545 671.258 74.3866 668.75 74.3866 664.602V664.578C74.3866 660.453 72.0428 657.945 68.2225 657.945C64.4139 657.945 62.0584 660.465 62.0584 664.578V664.602C62.0584 668.75 64.3787 671.258 68.2225 671.258ZM68.2225 668.891C66.1952 668.891 65.035 667.309 65.035 664.613V664.59C65.035 661.895 66.1952 660.301 68.2225 660.301C70.2381 660.301 71.3983 661.895 71.3983 664.59V664.613C71.3983 667.309 70.2498 668.891 68.2225 668.891ZM77.2706 675.254H80.1886V668.961H80.3878C81.0558 670.344 82.5206 671.211 84.2784 671.211C87.5245 671.211 89.5402 668.691 89.5402 664.613V664.59C89.5402 660.535 87.4894 657.98 84.2784 657.98C82.4855 657.98 81.0909 658.801 80.3878 660.195H80.1886V658.191H77.2706V675.254ZM83.3644 668.75C81.3839 668.75 80.1534 667.168 80.1534 664.602V664.578C80.1534 662.012 81.3839 660.441 83.3644 660.441C85.3566 660.441 86.5636 662.012 86.5636 664.59V664.613C86.5636 667.18 85.3566 668.75 83.3644 668.75ZM92.4242 671H97.8734C100.862 671 102.772 669.266 102.772 666.547V666.523C102.772 663.805 100.862 662.059 97.8734 662.059H95.3422V658.191H92.4242V671ZM104.87 671H107.787V658.191H104.87V671ZM97.4984 664.309C98.9164 664.309 99.8305 665.188 99.8305 666.512V666.535C99.8305 667.848 98.9281 668.75 97.4984 668.75H95.3422V664.309H97.4984ZM116.789 671.258C120.269 671.258 121.98 669.254 122.39 667.602L122.425 667.496H119.648L119.613 667.578C119.332 668.164 118.429 668.961 116.847 668.961C114.867 668.961 113.625 667.625 113.59 665.328H122.543V664.367C122.543 660.5 120.293 657.945 116.648 657.945C113.004 657.945 110.672 660.582 110.672 664.613V664.625C110.672 668.703 112.98 671.258 116.789 671.258ZM116.683 660.23C118.312 660.23 119.496 661.273 119.695 663.371H113.613C113.836 661.332 115.054 660.23 116.683 660.23ZM141.307 658.191H130.502V660.453H134.44V671H137.358V660.453H141.307V658.191ZM143.781 671H149.23C152.218 671 154.128 669.266 154.128 666.547V666.523C154.128 663.805 152.218 662.059 149.23 662.059H146.699V658.191H143.781V671ZM156.226 671H159.144V658.191H156.226V671ZM148.855 664.309C150.273 664.309 151.187 665.188 151.187 666.512V666.535C151.187 667.848 150.285 668.75 148.855 668.75H146.699V664.309H148.855ZM168.768 671H174.908C177.756 671 179.49 669.535 179.49 667.355V667.332C179.49 665.785 178.377 664.613 176.69 664.426V664.227C177.99 664.004 178.916 662.82 178.916 661.484V661.461C178.916 659.492 177.404 658.191 174.826 658.191H168.768V671ZM171.65 663.512V660.207H174.135C175.424 660.207 176.045 660.863 176.045 661.836V661.859C176.045 662.926 175.342 663.512 173.9 663.512H171.65ZM171.65 668.984V665.469H174.111C175.705 665.469 176.502 666.043 176.502 667.203V667.227C176.502 668.328 175.787 668.984 174.381 668.984H171.65ZM182.456 671H185.339L190.73 662.375H190.976V671H193.859V658.191H190.976L185.574 666.77H185.339V658.191H182.456V671ZM198.571 674.34V671H207.758V674.34H210.43V668.715H208.462V658.191H198.817L198.372 664.918C198.255 666.641 197.856 668.152 196.907 668.715H195.899V674.34H198.571ZM205.532 668.715H200.024V668.516C200.587 667.707 200.88 666.477 200.985 665.07L201.313 660.477H205.532V668.715ZM212.623 671H215.506L220.896 662.375H221.143V671H224.025V658.191H221.143L215.74 666.77H215.506V658.191H212.623V671ZM227.53 671H244.429V658.191H241.511V668.715H237.445V658.191H234.527V668.715H230.448V658.191H227.53V671ZM247.922 671H253.372C256.36 671 258.27 669.266 258.27 666.547V666.523C258.27 663.805 256.36 662.059 253.372 662.059H250.84V658.191H247.922V671ZM252.997 664.309C254.415 664.309 255.329 665.188 255.329 666.512V666.535C255.329 667.848 254.426 668.75 252.997 668.75H250.84V664.309H252.997ZM23.8867 700H30.0273C32.875 700 34.6094 698.535 34.6094 696.355V696.332C34.6094 694.785 33.4961 693.613 31.8086 693.426V693.227C33.1094 693.004 34.0352 691.82 34.0352 690.484V690.461C34.0352 688.492 32.5234 687.191 29.9453 687.191H23.8867V700ZM26.7695 692.512V689.207H29.2539C30.543 689.207 31.1641 689.863 31.1641 690.836V690.859C31.1641 691.926 30.4609 692.512 29.0195 692.512H26.7695ZM26.7695 697.984V694.469H29.2305C30.8242 694.469 31.6211 695.043 31.6211 696.203V696.227C31.6211 697.328 30.9062 697.984 29.5 697.984H26.7695ZM42.9544 700.258C46.7864 700.258 49.1184 697.75 49.1184 693.602V693.578C49.1184 689.453 46.7747 686.945 42.9544 686.945C39.1458 686.945 36.7903 689.465 36.7903 693.578V693.602C36.7903 697.75 39.1106 700.258 42.9544 700.258ZM42.9544 697.891C40.927 697.891 39.7669 696.309 39.7669 693.613V693.59C39.7669 690.895 40.927 689.301 42.9544 689.301C44.97 689.301 46.1302 690.895 46.1302 693.59V693.613C46.1302 696.309 44.9817 697.891 42.9544 697.891ZM55.565 694.469L59.8306 700H63.358L57.9439 693.121L63.1119 687.191H59.7603L55.5416 692.336H54.9088V687.191H51.9908V700H54.9088V694.469H55.565ZM65.6912 704.254H68.6092V697.961H68.8084C69.4764 699.344 70.9412 700.211 72.6991 700.211C75.9452 700.211 77.9608 697.691 77.9608 693.613V693.59C77.9608 689.535 75.91 686.98 72.6991 686.98C70.9061 686.98 69.5116 687.801 68.8084 689.195H68.6092V687.191H65.6912V704.254ZM71.785 697.75C69.8045 697.75 68.5741 696.168 68.5741 693.602V693.578C68.5741 691.012 69.8045 689.441 71.785 689.441C73.7772 689.441 74.9842 691.012 74.9842 693.59V693.613C74.9842 696.18 73.7772 697.75 71.785 697.75ZM81.712 704.5C84.548 704.5 86.0128 703.48 87.1144 700.27L91.7081 687.191H88.6378L85.6613 697.199H85.4386L82.4503 687.191H79.2628L83.8448 700.012L83.6925 700.598C83.3761 701.758 82.6613 702.25 81.4659 702.25C81.1613 702.25 80.8331 702.238 80.5988 702.215V704.453C80.9503 704.488 81.3605 704.5 81.712 704.5ZM102.795 689.453V687.191H94.1586V700H97.0766V689.453H102.795ZM117.083 700.258C120.329 700.258 122.216 698.512 122.638 695.887L122.661 695.793L119.907 695.805L119.884 695.852C119.52 697.199 118.595 697.891 117.083 697.891C115.103 697.891 113.919 696.297 113.919 693.578V693.555C113.919 690.871 115.091 689.301 117.083 689.301C118.677 689.301 119.626 690.191 119.895 691.434L119.907 691.469H122.661V691.422C122.333 688.773 120.364 686.945 117.071 686.945C113.216 686.945 110.954 689.418 110.954 693.555V693.578C110.954 697.762 113.228 700.258 117.083 700.258ZM130.83 700.258C134.311 700.258 136.022 698.254 136.432 696.602L136.467 696.496H133.69L133.655 696.578C133.373 697.164 132.471 697.961 130.889 697.961C128.908 697.961 127.666 696.625 127.631 694.328H136.584V693.367C136.584 689.5 134.334 686.945 130.69 686.945C127.045 686.945 124.713 689.582 124.713 693.613V693.625C124.713 697.703 127.022 700.258 130.83 700.258ZM130.725 689.23C132.354 689.23 133.537 690.273 133.737 692.371H127.655C127.877 690.332 129.096 689.23 130.725 689.23ZM145.105 700.27C148.925 700.27 151.281 697.691 151.281 693.625V693.602C151.281 689.852 149.078 687.438 145.656 687.438C143.675 687.438 142.187 688.281 141.355 689.816H141.144L141.179 689.582C141.613 686.383 142.902 685.07 145.796 684.965L147.261 684.906C148.632 684.848 149.968 684.59 150.449 684.273V681.918C149.429 682.281 148.14 682.469 147.097 682.504L145.585 682.562C140.898 682.75 138.859 685.785 138.859 692.453V692.477C138.859 697.527 141.027 700.27 145.105 700.27ZM145.07 697.902C143.007 697.902 141.824 696.32 141.824 693.684V693.66C141.824 691.164 143.019 689.723 145.07 689.723C147.121 689.723 148.304 691.164 148.304 693.66V693.684C148.304 696.309 147.121 697.902 145.07 697.902ZM161.032 700H163.903V687.191H158.618C155.63 687.191 153.661 688.867 153.661 691.539V691.562C153.661 693.32 154.727 694.691 156.473 695.207L153.04 700H156.368L159.368 695.688H161.032V700ZM158.841 693.543C157.446 693.543 156.579 692.699 156.579 691.551V691.527C156.579 690.25 157.434 689.43 158.841 689.43H161.032V693.543H158.841Z" fill="white"/>
<path d="M359.824 46.5851L364.124 42.2951C364.312 42.1068 364.418 41.8514 364.418 41.5851C364.418 41.3188 364.312 41.0635 364.124 40.8751C363.936 40.6868 363.68 40.5811 363.414 40.5811C363.148 40.5811 362.892 40.6868 362.704 40.8751L358.414 45.1751L354.124 40.8751C353.936 40.6868 353.68 40.5811 353.414 40.5811C353.148 40.5811 352.892 40.6868 352.704 40.8751C352.516 41.0635 352.41 41.3188 352.41 41.5851C352.41 41.8514 352.516 42.1068 352.704 42.2951L357.004 46.5851L352.704 50.8751C352.61 50.9681 352.536 51.0787 352.485 51.2006C352.434 51.3224 352.408 51.4531 352.408 51.5851C352.408 51.7172 352.434 51.8479 352.485 51.9697C352.536 52.0916 352.61 52.2022 352.704 52.2951C352.797 52.3889 352.908 52.4633 353.029 52.514C353.151 52.5648 353.282 52.5909 353.414 52.5909C353.546 52.5909 353.677 52.5648 353.799 52.514C353.92 52.4633 354.031 52.3889 354.124 52.2951L358.414 47.9951L362.704 52.2951C362.797 52.3889 362.908 52.4633 363.029 52.514C363.151 52.5648 363.282 52.5909 363.414 52.5909C363.546 52.5909 363.677 52.5648 363.799 52.514C363.92 52.4633 364.031 52.3889 364.124 52.2951C364.218 52.2022 364.292 52.0916 364.343 51.9697C364.394 51.8479 364.42 51.7172 364.42 51.5851C364.42 51.4531 364.394 51.3224 364.343 51.2006C364.292 51.0787 364.218 50.9681 364.124 50.8751L359.824 46.5851Z" fill="white"/>
<rect x="22.6035" y="17.585" width="67.3981" height="2" rx="1" fill="white"/>
<rect x="91.9336" y="17.585" width="67.3981" height="2" rx="1" fill="#D9D9D9" fill-opacity="0.2"/>
<rect x="161.263" y="17.585" width="67.3981" height="2" rx="1" fill="#D9D9D9" fill-opacity="0.2"/>
<rect x="230.593" y="17.585" width="67.3981" height="2" rx="1" fill="#D9D9D9" fill-opacity="0.2"/>
<rect x="299.922" y="17.585" width="67.3981" height="2" rx="1" fill="#D9D9D9" fill-opacity="0.2"/>
<path d="M293.049 114.652L308.973 105.363L299.9 121.411L299.476 122.161L300.338 122.157L318.773 122.075L302.891 131.436L302.149 131.874L302.897 132.301L318.903 141.448L300.469 141.614L299.607 141.622L300.041 142.366L309.33 158.29L293.282 149.217L292.532 148.793L292.536 149.655L292.618 168.09L283.257 152.208L282.819 151.466L282.392 152.214L273.245 168.22L273.079 149.786L273.071 148.925L272.327 149.359L256.403 158.647L265.476 142.599L265.9 141.849L265.038 141.853L246.603 141.935L262.485 132.574L263.227 132.136L262.479 131.709L246.473 122.562L264.907 122.396L265.768 122.388L265.334 121.644L256.046 105.72L272.094 114.793L272.844 115.217L272.84 114.355L272.758 95.9203L282.119 111.802L282.557 112.544L282.984 111.796L292.131 95.7897L292.297 114.224L292.305 115.086L293.049 114.652Z" fill="#33FF00" stroke="#2C2C2C"/>
</svg>
