<svg width="391" height="731" viewBox="0 0 391 731" fill="none" xmlns="http://www.w3.org/2000/svg">
<rect x="0.603516" y="0.161133" width="390" height="730" rx="12" fill="#2C2C2C"/>
<path d="M25.7676 631.821H57.4258V606.456H50.9922V626.636H44.8223V606.456H38.3887V626.636H32.2188V606.456H25.7676V631.821ZM68.2376 632.12C70.7337 632.12 72.8255 631.065 73.6868 629.396H74.0208V631.821H80.138V618.479C80.138 614.261 77.0618 611.8 71.6653 611.8C66.3743 611.8 62.9993 614.173 62.6477 617.776L62.6302 617.987H68.2727L68.3079 617.899C68.677 616.915 69.679 616.37 71.3138 616.37C73.0364 616.37 74.0208 617.161 74.0208 618.479V620.009L69.7493 620.255C64.7044 620.571 61.927 622.628 61.927 626.179V626.214C61.927 629.782 64.4934 632.12 68.2376 632.12ZM67.9212 625.774V625.739C67.9212 624.579 68.888 623.841 70.7337 623.718L74.0208 623.507V624.79C74.0208 626.478 72.4915 627.778 70.5227 627.778C68.9583 627.778 67.9212 627.005 67.9212 625.774ZM99.0357 616.827V612.257H84.9205V631.821H91.1607V616.827H99.0357ZM111.343 631.821H130.626V626.794H119.903V626.407L124.017 622.804C128.675 618.761 130.275 616.229 130.275 613.364V613.276C130.275 608.776 126.495 605.771 120.853 605.771C114.929 605.771 110.974 609.181 110.974 614.226V614.331H116.88V614.208C116.88 612.116 118.409 610.64 120.589 610.64C122.734 610.64 124.017 611.888 124.017 613.786V613.856C124.017 615.403 123.032 616.669 119.306 620.097L111.343 627.515V631.821ZM139.276 620.132C141.385 620.132 142.809 618.673 142.809 616.687C142.809 614.7 141.385 613.224 139.276 613.224C137.184 613.224 135.76 614.7 135.76 616.687C135.76 618.673 137.184 620.132 139.276 620.132ZM139.276 632.401C141.385 632.401 142.809 630.925 142.809 628.938C142.809 626.952 141.385 625.493 139.276 625.493C137.184 625.493 135.76 626.952 135.76 628.938C135.76 630.925 137.184 632.401 139.276 632.401Z" fill="#33FF00"/>
<path d="M24.8066 670.821H27.8301V663.485H36.0566V670.821H39.0684V653.911H36.0566V660.942H27.8301V653.911H24.8066V670.821ZM46.3938 671.032C48.0813 671.032 49.4407 670.306 50.1438 669.063H50.343V670.821H53.2259V662.067C53.2259 659.36 51.3743 657.767 48.0813 657.767C45.0345 657.767 42.972 659.196 42.6907 661.353L42.679 661.458H45.4329L45.4446 661.411C45.7376 660.567 46.6048 660.087 47.9407 660.087C49.511 660.087 50.343 660.79 50.343 662.067V663.169L47.0501 663.368C43.9329 663.556 42.1868 664.892 42.1868 667.177V667.2C42.1868 669.532 43.9563 671.032 46.3938 671.032ZM45.0696 667.06V667.036C45.0696 665.981 45.8313 665.384 47.4602 665.278L50.343 665.091V666.122C50.343 667.646 49.0423 668.794 47.2845 668.794C45.9954 668.794 45.0696 668.149 45.0696 667.06ZM61.4771 671.091C64.7701 671.091 66.8677 669.438 66.8677 667.06V667.036C66.8677 665.606 66.0005 664.575 64.2193 664.224V664.024C65.6021 663.708 66.4576 662.665 66.4576 661.317V661.294C66.4576 659.126 64.5826 657.755 61.5474 657.755C58.4068 657.755 56.6138 659.267 56.3209 661.505L56.3091 661.599H59.0748L59.0865 661.54C59.2623 660.614 60.1412 660.017 61.4537 660.017C62.8951 660.017 63.6099 660.72 63.6099 661.646V661.669C63.6099 662.724 62.9068 663.333 61.4185 663.333H59.5904V665.302H61.4302C63.0826 665.302 63.9732 665.876 63.9732 667.013V667.036C63.9732 668.091 63.0357 668.829 61.442 668.829C60.0709 668.829 59.0982 668.255 58.8287 667.271L58.8052 667.188H55.9693L55.981 667.294C56.2623 669.778 58.5709 671.091 61.4771 671.091ZM75.1776 671.079C79.0096 671.079 81.3416 668.571 81.3416 664.423V664.399C81.3416 660.274 78.9979 657.767 75.1776 657.767C71.369 657.767 69.0135 660.286 69.0135 664.399V664.423C69.0135 668.571 71.3338 671.079 75.1776 671.079ZM75.1776 668.712C73.1502 668.712 71.9901 667.13 71.9901 664.435V664.411C71.9901 661.716 73.1502 660.122 75.1776 660.122C77.1932 660.122 78.3534 661.716 78.3534 664.411V664.435C78.3534 667.13 77.2049 668.712 75.1776 668.712ZM84.214 670.821H90.3546C93.2023 670.821 94.9366 669.356 94.9366 667.177V667.153C94.9366 665.606 93.8234 664.435 92.1359 664.247V664.048C93.4366 663.825 94.3624 662.642 94.3624 661.306V661.282C94.3624 659.313 92.8507 658.013 90.2726 658.013H84.214V670.821ZM87.0968 663.333V660.028H89.5812C90.8702 660.028 91.4913 660.685 91.4913 661.657V661.681C91.4913 662.747 90.7882 663.333 89.3468 663.333H87.0968ZM87.0968 668.806V665.29H89.5577C91.1515 665.29 91.9484 665.864 91.9484 667.024V667.048C91.9484 668.149 91.2335 668.806 89.8273 668.806H87.0968ZM97.9027 670.821H100.786L106.176 662.196H106.422V670.821H109.305V658.013H106.422L101.02 666.591H100.786V658.013H97.9027V670.821ZM126.616 670.821H129.511V667.575H131.784V665.079H129.511V653.911H125.233C122.936 657.403 120.534 661.294 118.343 665.103V667.575H126.616V670.821ZM121.155 665.149V664.974C122.796 662.103 124.753 658.974 126.487 656.325H126.663V665.149H121.155ZM145.697 671.091C148.99 671.091 151.087 669.438 151.087 667.06V667.036C151.087 665.606 150.22 664.575 148.439 664.224V664.024C149.822 663.708 150.677 662.665 150.677 661.317V661.294C150.677 659.126 148.802 657.755 145.767 657.755C142.626 657.755 140.834 659.267 140.541 661.505L140.529 661.599H143.294L143.306 661.54C143.482 660.614 144.361 660.017 145.673 660.017C147.115 660.017 147.83 660.72 147.83 661.646V661.669C147.83 662.724 147.126 663.333 145.638 663.333H143.81V665.302H145.65C147.302 665.302 148.193 665.876 148.193 667.013V667.036C148.193 668.091 147.255 668.829 145.662 668.829C144.291 668.829 143.318 668.255 143.048 667.271L143.025 667.188H140.189L140.201 667.294C140.482 669.778 142.791 671.091 145.697 671.091ZM154.018 670.821H160.159C163.007 670.821 164.741 669.356 164.741 667.177V667.153C164.741 665.606 163.628 664.435 161.94 664.247V664.048C163.241 663.825 164.167 662.642 164.167 661.306V661.282C164.167 659.313 162.655 658.013 160.077 658.013H154.018V670.821ZM156.901 663.333V660.028H159.386C160.675 660.028 161.296 660.685 161.296 661.657V661.681C161.296 662.747 160.593 663.333 159.151 663.333H156.901ZM156.901 668.806V665.29H159.362C160.956 665.29 161.753 665.864 161.753 667.024V667.048C161.753 668.149 161.038 668.806 159.632 668.806H156.901ZM168.621 675.321C171.457 675.321 172.922 674.302 174.024 671.091L178.617 658.013H175.547L172.57 668.021H172.348L169.359 658.013H166.172L170.754 670.833L170.602 671.419C170.285 672.579 169.57 673.071 168.375 673.071C168.07 673.071 167.742 673.06 167.508 673.036V675.274C167.859 675.31 168.27 675.321 168.621 675.321ZM184.642 665.29L188.908 670.821H192.435L187.021 663.942L192.189 658.013H188.837L184.619 663.157H183.986V658.013H181.068V670.821H183.986V665.29H184.642ZM197.839 671.032C199.526 671.032 200.885 670.306 201.589 669.063H201.788V670.821H204.671V662.067C204.671 659.36 202.819 657.767 199.526 657.767C196.479 657.767 194.417 659.196 194.135 661.353L194.124 661.458H196.878L196.889 661.411C197.182 660.567 198.049 660.087 199.385 660.087C200.956 660.087 201.788 660.79 201.788 662.067V663.169L198.495 663.368C195.378 663.556 193.631 664.892 193.631 667.177V667.2C193.631 669.532 195.401 671.032 197.839 671.032ZM196.514 667.06V667.036C196.514 665.981 197.276 665.384 198.905 665.278L201.788 665.091V666.122C201.788 667.646 200.487 668.794 198.729 668.794C197.44 668.794 196.514 668.149 196.514 667.06ZM207.625 675.286H209.617L211.656 668.243H208.644L207.625 675.286ZM28.0645 694.29L32.3301 699.821H35.8574L30.4434 692.942L35.6113 687.013H32.2598L28.041 692.157H27.4082V687.013H24.4902V699.821H27.4082V694.29H28.0645ZM43.136 700.079C46.968 700.079 49.3001 697.571 49.3001 693.423V693.399C49.3001 689.274 46.9563 686.767 43.136 686.767C39.3274 686.767 36.972 689.286 36.972 693.399V693.423C36.972 697.571 39.2923 700.079 43.136 700.079ZM43.136 697.712C41.1087 697.712 39.9485 696.13 39.9485 693.435V693.411C39.9485 690.716 41.1087 689.122 43.136 689.122C45.1516 689.122 46.3118 690.716 46.3118 693.411V693.435C46.3118 696.13 45.1634 697.712 43.136 697.712ZM61.2076 687.013H50.4029V689.274H54.3404V699.821H57.2584V689.274H61.2076V687.013ZM68.826 700.079C72.658 700.079 74.9901 697.571 74.9901 693.423V693.399C74.9901 689.274 72.6463 686.767 68.826 686.767C65.0174 686.767 62.662 689.286 62.662 693.399V693.423C62.662 697.571 64.9823 700.079 68.826 700.079ZM68.826 697.712C66.7987 697.712 65.6385 696.13 65.6385 693.435V693.411C65.6385 690.716 66.7987 689.122 68.826 689.122C70.8416 689.122 72.0018 690.716 72.0018 693.411V693.435C72.0018 696.13 70.8534 697.712 68.826 697.712ZM77.8741 704.075H80.7921V697.782H80.9913C81.6593 699.165 83.1241 700.032 84.882 700.032C88.128 700.032 90.1437 697.513 90.1437 693.435V693.411C90.1437 689.356 88.0929 686.802 84.882 686.802C83.089 686.802 81.6945 687.622 80.9913 689.017H80.7921V687.013H77.8741V704.075ZM83.9679 697.571C81.9874 697.571 80.757 695.989 80.757 693.423V693.399C80.757 690.833 81.9874 689.263 83.9679 689.263C85.9601 689.263 87.1671 690.833 87.1671 693.411V693.435C87.1671 696.001 85.9601 697.571 83.9679 697.571ZM93.0277 699.821H98.477C101.465 699.821 103.375 698.087 103.375 695.368V695.345C103.375 692.626 101.465 690.88 98.477 690.88H95.9457V687.013H93.0277V699.821ZM105.473 699.821H108.391V687.013H105.473V699.821ZM98.102 693.13C99.5199 693.13 100.434 694.009 100.434 695.333V695.356C100.434 696.669 99.5316 697.571 98.102 697.571H95.9457V693.13H98.102ZM117.392 700.079C120.873 700.079 122.584 698.075 122.994 696.423L123.029 696.317H120.252L120.216 696.399C119.935 696.985 119.033 697.782 117.451 697.782C115.47 697.782 114.228 696.446 114.193 694.149H123.146V693.188C123.146 689.321 120.896 686.767 117.252 686.767C113.607 686.767 111.275 689.403 111.275 693.435V693.446C111.275 697.524 113.584 700.079 117.392 700.079ZM117.287 689.052C118.916 689.052 120.099 690.095 120.299 692.192H114.216C114.439 690.153 115.658 689.052 117.287 689.052ZM141.91 687.013H131.106V689.274H135.043V699.821H137.961V689.274H141.91V687.013ZM144.384 699.821H149.834C152.822 699.821 154.732 698.087 154.732 695.368V695.345C154.732 692.626 152.822 690.88 149.834 690.88H147.302V687.013H144.384V699.821ZM156.83 699.821H159.748V687.013H156.83V699.821ZM149.459 693.13C150.876 693.13 151.791 694.009 151.791 695.333V695.356C151.791 696.669 150.888 697.571 149.459 697.571H147.302V693.13H149.459ZM174.879 700.079C178.125 700.079 180.012 698.333 180.434 695.708L180.457 695.614L177.703 695.626L177.68 695.673C177.316 697.021 176.391 697.712 174.879 697.712C172.899 697.712 171.715 696.118 171.715 693.399V693.376C171.715 690.692 172.887 689.122 174.879 689.122C176.473 689.122 177.422 690.013 177.691 691.255L177.703 691.29H180.457V691.243C180.129 688.595 178.16 686.767 174.867 686.767C171.012 686.767 168.75 689.239 168.75 693.376V693.399C168.75 697.583 171.024 700.079 174.879 700.079ZM186.904 694.278L187.267 689.274H191.005V699.821H193.923V687.013H184.736L184.29 694.044C184.173 695.884 183.763 697.372 182.591 697.372C182.263 697.372 181.947 697.325 181.818 697.29V699.798C182.005 699.856 182.392 699.938 182.919 699.938C185.521 699.938 186.658 697.97 186.904 694.278ZM197.428 699.821H202.878C205.866 699.821 207.776 698.087 207.776 695.368V695.345C207.776 692.626 205.866 690.88 202.878 690.88H200.346V687.013H197.428V699.821ZM209.874 699.821H212.792V687.013H209.874V699.821ZM202.503 693.13C203.921 693.13 204.835 694.009 204.835 695.333V695.356C204.835 696.669 203.932 697.571 202.503 697.571H200.346V693.13H202.503ZM216.297 699.821H233.195V687.013H230.277V697.536H226.211V687.013H223.293V697.536H219.215V687.013H216.297V699.821ZM236.689 699.821H239.571L244.962 691.196H245.208V699.821H248.091V687.013H245.208L239.806 695.591H239.571V687.013H236.689V699.821ZM251.596 699.821H268.495V687.013H265.577V697.536H261.51V687.013H258.592V697.536H254.514V687.013H251.596V699.821ZM271.988 699.821H277.437C280.426 699.821 282.336 698.087 282.336 695.368V695.345C282.336 692.626 280.426 690.88 277.437 690.88H274.906V687.013H271.988V699.821ZM277.062 693.13C278.48 693.13 279.394 694.009 279.394 695.333V695.356C279.394 696.669 278.492 697.571 277.062 697.571H274.906V693.13H277.062Z" fill="white"/>
<path d="M360.428 46.7463L364.728 42.4563C364.916 42.268 365.022 42.0126 365.022 41.7463C365.022 41.48 364.916 41.2246 364.728 41.0363C364.539 40.848 364.284 40.7422 364.018 40.7422C363.751 40.7422 363.496 40.848 363.308 41.0363L359.018 45.3363L354.728 41.0363C354.539 40.848 354.284 40.7422 354.018 40.7422C353.751 40.7422 353.496 40.848 353.308 41.0363C353.119 41.2246 353.013 41.48 353.013 41.7463C353.013 42.0126 353.119 42.268 353.308 42.4563L357.608 46.7463L353.308 51.0363C353.214 51.1292 353.139 51.2398 353.089 51.3617C353.038 51.4836 353.012 51.6143 353.012 51.7463C353.012 51.8783 353.038 52.009 353.089 52.1309C353.139 52.2527 353.214 52.3633 353.308 52.4563C353.4 52.55 353.511 52.6244 353.633 52.6752C353.755 52.7259 353.886 52.7521 354.018 52.7521C354.15 52.7521 354.28 52.7259 354.402 52.6752C354.524 52.6244 354.635 52.55 354.728 52.4563L359.018 48.1563L363.308 52.4563C363.4 52.55 363.511 52.6244 363.633 52.6752C363.755 52.7259 363.886 52.7521 364.018 52.7521C364.15 52.7521 364.28 52.7259 364.402 52.6752C364.524 52.6244 364.635 52.55 364.728 52.4563C364.821 52.3633 364.896 52.2527 364.946 52.1309C364.997 52.009 365.023 51.8783 365.023 51.7463C365.023 51.6143 364.997 51.4836 364.946 51.3617C364.896 51.2398 364.821 51.1292 364.728 51.0363L360.428 46.7463Z" fill="white"/>
<rect x="23.6035" y="17.7461" width="67.3981" height="2" rx="1" fill="white"/>
<rect x="92.9336" y="17.7461" width="67.3981" height="2" rx="1" fill="white"/>
<rect x="162.262" y="17.7461" width="67.3981" height="2" rx="1" fill="#D9D9D9" fill-opacity="0.2"/>
<rect x="231.592" y="17.7461" width="67.3981" height="2" rx="1" fill="#D9D9D9" fill-opacity="0.2"/>
<rect x="300.921" y="17.7461" width="67.3981" height="2" rx="1" fill="#D9D9D9" fill-opacity="0.2"/>
<path d="M294.048 114.813L309.972 105.525L300.899 121.573L300.475 122.322L301.337 122.319L319.772 122.237L303.89 131.598L303.148 132.035L303.896 132.463L319.902 141.609L301.468 141.776L300.606 141.784L301.04 142.528L310.329 158.452L294.281 149.379L293.531 148.955L293.535 149.816L293.617 168.251L284.256 152.37L283.818 151.628L283.391 152.376L274.244 168.382L274.078 149.948L274.07 149.086L273.326 149.52L257.402 158.809L266.475 142.761L266.899 142.011L266.037 142.015L247.602 142.097L263.484 132.735L264.226 132.298L263.478 131.871L247.472 122.724L265.906 122.558L266.767 122.55L266.333 121.806L257.045 105.881L273.093 114.954L273.843 115.378L273.839 114.517L273.757 96.0819L283.118 111.963L283.556 112.706L283.983 111.958L293.13 95.9513L293.296 114.386L293.304 115.247L294.048 114.813Z" fill="#33FF00" stroke="#2C2C2C"/>
<path d="M128.714 220.333L158.081 203.203L141.349 232.799L140.925 233.549L141.786 233.545L175.784 233.394L146.496 250.658L145.754 251.095L146.501 251.523L176.02 268.391L142.023 268.698L141.162 268.706L141.596 269.45L158.726 298.817L129.13 282.085L128.38 281.661L128.384 282.522L128.536 316.52L111.271 287.231L110.834 286.489L110.406 287.237L93.5386 316.756L93.2315 282.759L93.2237 281.898L92.4796 282.332L63.1122 299.462L79.8447 269.866L80.2686 269.116L79.4072 269.12L45.4094 269.271L74.6979 252.007L75.44 251.57L74.6921 251.142L45.1734 234.274L79.1702 233.967L80.0316 233.959L79.5975 233.215L62.4675 203.848L92.0632 220.58L92.8131 221.004L92.8093 220.143L92.6579 186.145L109.922 215.434L110.36 216.176L110.787 215.428L127.655 185.909L127.962 219.906L127.97 220.767L128.714 220.333Z" fill="#33FF00" stroke="#2C2C2C"/>
</svg>
