<svg width="391" height="731" viewBox="0 0 391 731" fill="none" xmlns="http://www.w3.org/2000/svg">
<rect x="0.207031" y="0.161133" width="390" height="730" rx="12" fill="#2C2C2C"/>
<path d="M25.3711 603.161H57.0293V577.796H50.5957V597.976H44.4258V577.796H37.9922V597.976H31.8223V577.796H25.3711V603.161ZM67.8411 603.46C70.3372 603.46 72.429 602.405 73.2903 600.735H73.6243V603.161H79.7415V589.819C79.7415 585.601 76.6653 583.14 71.2688 583.14C65.9778 583.14 62.6028 585.513 62.2513 589.116L62.2337 589.327H67.8763L67.9114 589.239C68.2805 588.255 69.2825 587.71 70.9173 587.71C72.6399 587.71 73.6243 588.501 73.6243 589.819V591.349L69.3528 591.595C64.3079 591.911 61.5305 593.968 61.5305 597.519V597.554C61.5305 601.122 64.097 603.46 67.8411 603.46ZM67.5247 597.114V597.079C67.5247 595.919 68.4915 595.181 70.3372 595.058L73.6243 594.847V596.13C73.6243 597.817 72.095 599.118 70.1263 599.118C68.5618 599.118 67.5247 598.345 67.5247 597.114ZM98.6392 588.167V583.597H84.524V603.161H90.7642V588.167H98.6392ZM120.86 603.794C127.241 603.794 131.302 600.718 131.302 595.901V595.866C131.302 592.509 128.859 590.399 125.062 590.013V589.89C127.927 589.31 130.3 587.288 130.3 584.106V584.071C130.3 579.923 126.609 577.163 120.825 577.163C115.183 577.163 111.456 580.222 111.122 584.968L111.105 585.214H116.958L116.976 585.038C117.151 583.175 118.593 581.962 120.825 581.962C123.005 581.962 124.306 583.122 124.306 584.95V584.985C124.306 586.778 122.794 587.956 120.316 587.956H117.609V592.333H120.351C123.163 592.333 124.745 593.458 124.745 595.497V595.532C124.745 597.413 123.251 598.731 120.86 598.731C118.452 598.731 116.905 597.483 116.694 595.796L116.659 595.603H110.507L110.525 595.831C110.894 600.63 114.866 603.794 120.86 603.794ZM139.864 591.472C141.973 591.472 143.397 590.013 143.397 588.026C143.397 586.04 141.973 584.563 139.864 584.563C137.772 584.563 136.348 586.04 136.348 588.026C136.348 590.013 137.772 591.472 139.864 591.472ZM139.864 603.741C141.973 603.741 143.397 602.265 143.397 600.278C143.397 598.292 141.973 596.833 139.864 596.833C137.772 596.833 136.348 598.292 136.348 600.278C136.348 602.265 137.772 603.741 139.864 603.741Z" fill="#33FF00"/>
<path d="M24.4102 642.161H27.4336V634.825H35.6602V642.161H38.6719V625.251H35.6602V632.282H27.4336V625.251H24.4102V642.161ZM45.9973 642.372C47.6848 642.372 49.0442 641.646 49.7473 640.403H49.9466V642.161H52.8294V633.407C52.8294 630.7 50.9778 629.106 47.6848 629.106C44.638 629.106 42.5755 630.536 42.2942 632.692L42.2825 632.798H45.0364L45.0481 632.751C45.3411 631.907 46.2083 631.427 47.5442 631.427C49.1145 631.427 49.9466 632.13 49.9466 633.407V634.509L46.6536 634.708C43.5364 634.896 41.7903 636.231 41.7903 638.517V638.54C41.7903 640.872 43.5598 642.372 45.9973 642.372ZM44.6731 638.399V638.376C44.6731 637.321 45.4348 636.724 47.0637 636.618L49.9466 636.431V637.462C49.9466 638.985 48.6458 640.134 46.888 640.134C45.5989 640.134 44.6731 639.489 44.6731 638.399ZM61.0806 642.431C64.3736 642.431 66.4712 640.778 66.4712 638.399V638.376C66.4712 636.946 65.6041 635.915 63.8228 635.563V635.364C65.2056 635.048 66.0611 634.005 66.0611 632.657V632.634C66.0611 630.466 64.1861 629.095 61.1509 629.095C58.0103 629.095 56.2173 630.606 55.9244 632.845L55.9127 632.938H58.6783L58.69 632.88C58.8658 631.954 59.7447 631.356 61.0572 631.356C62.4986 631.356 63.2134 632.06 63.2134 632.985V633.009C63.2134 634.063 62.5103 634.673 61.022 634.673H59.1939V636.642H61.0337C62.6861 636.642 63.5767 637.216 63.5767 638.353V638.376C63.5767 639.431 62.6392 640.169 61.0455 640.169C59.6744 640.169 58.7017 639.595 58.4322 638.61L58.4087 638.528H55.5728L55.5845 638.634C55.8658 641.118 58.1744 642.431 61.0806 642.431ZM74.7811 642.419C78.6131 642.419 80.9452 639.911 80.9452 635.763V635.739C80.9452 631.614 78.6014 629.106 74.7811 629.106C70.9725 629.106 68.617 631.626 68.617 635.739V635.763C68.617 639.911 70.9373 642.419 74.7811 642.419ZM74.7811 640.052C72.7537 640.052 71.5936 638.47 71.5936 635.774V635.751C71.5936 633.056 72.7537 631.462 74.7811 631.462C76.7967 631.462 77.9569 633.056 77.9569 635.751V635.774C77.9569 638.47 76.8084 640.052 74.7811 640.052ZM83.8175 642.161H89.9581C92.8058 642.161 94.5402 640.696 94.5402 638.517V638.493C94.5402 636.946 93.4269 635.774 91.7394 635.587V635.388C93.0402 635.165 93.9659 633.981 93.9659 632.646V632.622C93.9659 630.653 92.4542 629.353 89.8761 629.353H83.8175V642.161ZM86.7003 634.673V631.368H89.1847C90.4738 631.368 91.0948 632.024 91.0948 632.997V633.021C91.0948 634.087 90.3917 634.673 88.9503 634.673H86.7003ZM86.7003 640.146V636.63H89.1613C90.755 636.63 91.5519 637.204 91.5519 638.364V638.388C91.5519 639.489 90.837 640.146 89.4308 640.146H86.7003ZM97.5062 642.161H100.389L105.78 633.536H106.026V642.161H108.909V629.353H106.026L100.623 637.931H100.389V629.353H97.5062V642.161ZM124.532 642.501C128.282 642.501 130.849 640.427 130.849 637.45V637.427C130.849 635.083 129.196 633.606 126.712 633.372V633.313C128.739 632.892 130.251 631.497 130.251 629.399V629.376C130.251 626.728 127.989 624.911 124.509 624.911C121.099 624.911 118.79 626.833 118.532 629.763L118.52 629.892H121.333L121.345 629.774C121.497 628.263 122.728 627.313 124.509 627.313C126.313 627.313 127.356 628.228 127.356 629.774V629.798C127.356 631.274 126.114 632.329 124.251 632.329H122.317V634.579H124.31C126.478 634.579 127.79 635.563 127.79 637.345V637.368C127.79 638.938 126.489 640.028 124.532 640.028C122.552 640.028 121.228 639.009 121.063 637.579L121.052 637.45H118.169L118.181 637.591C118.403 640.485 120.829 642.501 124.532 642.501ZM140.074 642.161H142.992V631.614H148.277V642.161H151.195V629.353H140.074V642.161ZM154.712 646.415H157.63V640.122H157.829C158.497 641.505 159.962 642.372 161.72 642.372C164.966 642.372 166.981 639.853 166.981 635.774V635.751C166.981 631.696 164.93 629.142 161.72 629.142C159.927 629.142 158.532 629.962 157.829 631.356H157.63V629.353H154.712V646.415ZM160.805 639.911C158.825 639.911 157.595 638.329 157.595 635.763V635.739C157.595 633.173 158.825 631.603 160.805 631.603C162.798 631.603 164.005 633.173 164.005 635.751V635.774C164.005 638.341 162.798 639.911 160.805 639.911ZM175.361 642.419C178.842 642.419 180.553 640.415 180.963 638.763L180.998 638.657H178.221L178.186 638.739C177.904 639.325 177.002 640.122 175.42 640.122C173.44 640.122 172.197 638.786 172.162 636.489H181.115V635.528C181.115 631.661 178.865 629.106 175.221 629.106C171.576 629.106 169.244 631.743 169.244 635.774V635.786C169.244 639.864 171.553 642.419 175.361 642.419ZM175.256 631.392C176.885 631.392 178.068 632.435 178.268 634.532H172.186C172.408 632.493 173.627 631.392 175.256 631.392ZM185.089 645.501V642.161H194.277V645.501H196.949V639.876H194.98V629.353H185.335L184.89 636.079C184.773 637.802 184.374 639.313 183.425 639.876H182.417V645.501H185.089ZM192.05 639.876H186.542V639.677C187.105 638.868 187.398 637.638 187.503 636.231L187.831 631.638H192.05V639.876ZM201.93 642.161V633.419H202.153L205.669 641.587H207.755L211.282 633.419H211.505V642.161H214.294V629.353H210.649L206.852 638.271H206.641L202.856 629.353H199.141V642.161H201.93ZM223.295 642.419C226.775 642.419 228.486 640.415 228.896 638.763L228.932 638.657H226.154L226.119 638.739C225.838 639.325 224.935 640.122 223.353 640.122C221.373 640.122 220.131 638.786 220.096 636.489H229.049V635.528C229.049 631.661 226.799 629.106 223.154 629.106C219.51 629.106 217.178 631.743 217.178 635.774V635.786C217.178 639.864 219.486 642.419 223.295 642.419ZM223.189 631.392C224.818 631.392 226.002 632.435 226.201 634.532H220.119C220.342 632.493 221.56 631.392 223.189 631.392ZM241.695 629.353H230.89V631.614H234.827V642.161H237.745V631.614H241.695V629.353ZM247.461 642.372C249.149 642.372 250.508 641.646 251.211 640.403H251.411V642.161H254.293V633.407C254.293 630.7 252.442 629.106 249.149 629.106C246.102 629.106 244.04 630.536 243.758 632.692L243.747 632.798H246.5L246.512 632.751C246.805 631.907 247.672 631.427 249.008 631.427C250.579 631.427 251.411 632.13 251.411 633.407V634.509L248.118 634.708C245 634.896 243.254 636.231 243.254 638.517V638.54C243.254 640.872 245.024 642.372 247.461 642.372ZM246.137 638.399V638.376C246.137 637.321 246.899 636.724 248.528 636.618L251.411 636.431V637.462C251.411 638.985 250.11 640.134 248.352 640.134C247.063 640.134 246.137 639.489 246.137 638.399ZM257.248 646.626H259.24L261.279 639.583H258.267L257.248 646.626ZM27.668 665.63L31.9336 671.161H35.4609L30.0469 664.282L35.2148 658.353H31.8633L27.6445 663.497H27.0117V658.353H24.0938V671.161H27.0117V665.63H27.668ZM42.7395 671.419C46.5716 671.419 48.9036 668.911 48.9036 664.763V664.739C48.9036 660.614 46.5598 658.106 42.7395 658.106C38.9309 658.106 36.5755 660.626 36.5755 664.739V664.763C36.5755 668.911 38.8958 671.419 42.7395 671.419ZM42.7395 669.052C40.7122 669.052 39.552 667.47 39.552 664.774V664.751C39.552 662.056 40.7122 660.462 42.7395 660.462C44.7552 660.462 45.9153 662.056 45.9153 664.751V664.774C45.9153 667.47 44.7669 669.052 42.7395 669.052ZM60.8111 658.353H50.0064V660.614H53.9439V671.161H56.8619V660.614H60.8111V658.353ZM68.4295 671.419C72.2616 671.419 74.5936 668.911 74.5936 664.763V664.739C74.5936 660.614 72.2498 658.106 68.4295 658.106C64.6209 658.106 62.2655 660.626 62.2655 664.739V664.763C62.2655 668.911 64.5858 671.419 68.4295 671.419ZM68.4295 669.052C66.4022 669.052 65.242 667.47 65.242 664.774V664.751C65.242 662.056 66.4022 660.462 68.4295 660.462C70.4452 660.462 71.6053 662.056 71.6053 664.751V664.774C71.6053 667.47 70.4569 669.052 68.4295 669.052ZM77.4777 675.415H80.3956V669.122H80.5948C81.2628 670.505 82.7277 671.372 84.4855 671.372C87.7316 671.372 89.7472 668.853 89.7472 664.774V664.751C89.7472 660.696 87.6964 658.142 84.4855 658.142C82.6925 658.142 81.298 658.962 80.5948 660.356H80.3956V658.353H77.4777V675.415ZM83.5714 668.911C81.5909 668.911 80.3605 667.329 80.3605 664.763V664.739C80.3605 662.173 81.5909 660.603 83.5714 660.603C85.5636 660.603 86.7706 662.173 86.7706 664.751V664.774C86.7706 667.341 85.5636 668.911 83.5714 668.911ZM92.6312 671.161H98.0805C101.069 671.161 102.979 669.427 102.979 666.708V666.685C102.979 663.966 101.069 662.22 98.0805 662.22H95.5492V658.353H92.6312V671.161ZM105.077 671.161H107.995V658.353H105.077V671.161ZM97.7055 664.47C99.1234 664.47 100.037 665.349 100.037 666.673V666.696C100.037 668.009 99.1352 668.911 97.7055 668.911H95.5492V664.47H97.7055ZM116.996 671.419C120.476 671.419 122.187 669.415 122.597 667.763L122.632 667.657H119.855L119.82 667.739C119.539 668.325 118.636 669.122 117.054 669.122C115.074 669.122 113.832 667.786 113.797 665.489H122.75V664.528C122.75 660.661 120.5 658.106 116.855 658.106C113.211 658.106 110.879 660.743 110.879 664.774V664.786C110.879 668.864 113.187 671.419 116.996 671.419ZM116.89 660.392C118.519 660.392 119.703 661.435 119.902 663.532H113.82C114.043 661.493 115.261 660.392 116.89 660.392ZM141.514 658.353H130.709V660.614H134.647V671.161H137.565V660.614H141.514V658.353ZM143.988 671.161H149.437C152.425 671.161 154.335 669.427 154.335 666.708V666.685C154.335 663.966 152.425 662.22 149.437 662.22H146.906V658.353H143.988V671.161ZM156.433 671.161H159.351V658.353H156.433V671.161ZM149.062 664.47C150.48 664.47 151.394 665.349 151.394 666.673V666.696C151.394 668.009 150.492 668.911 149.062 668.911H146.906V664.47H149.062ZM171.764 671.161V662.419H171.986L175.502 670.587H177.588L181.115 662.419H181.338V671.161H184.127V658.353H180.482L176.686 667.271H176.475L172.69 658.353H168.975V671.161H171.764ZM193.175 671.419C197.007 671.419 199.339 668.911 199.339 664.763V664.739C199.339 660.614 196.995 658.106 193.175 658.106C189.367 658.106 187.011 660.626 187.011 664.739V664.763C187.011 668.911 189.331 671.419 193.175 671.419ZM193.175 669.052C191.148 669.052 189.988 667.47 189.988 664.774V664.751C189.988 662.056 191.148 660.462 193.175 660.462C195.191 660.462 196.351 662.056 196.351 664.751V664.774C196.351 667.47 195.202 669.052 193.175 669.052ZM203.7 671.161L207.579 665.583H208.317V671.161H211.153V665.583H211.903L215.782 671.161H219.227L214.223 664.271L218.958 658.353H215.676L211.868 663.544H211.153V658.353H208.317V663.544H207.602L203.805 658.353H200.501L205.258 664.306L200.266 671.161H203.7ZM226.928 671.419C230.408 671.419 232.119 669.415 232.529 667.763L232.564 667.657H229.787L229.752 667.739C229.471 668.325 228.568 669.122 226.986 669.122C225.006 669.122 223.764 667.786 223.728 665.489H232.682V664.528C232.682 660.661 230.432 658.106 226.787 658.106C223.143 658.106 220.81 660.743 220.81 664.774V664.786C220.81 668.864 223.119 671.419 226.928 671.419ZM226.822 660.392C228.451 660.392 229.635 661.435 229.834 663.532H223.752C223.975 661.493 225.193 660.392 226.822 660.392ZM235.542 671.161H252.441V658.353H249.523V668.876H245.456V658.353H242.538V668.876H238.46V658.353H235.542V671.161ZM255.934 671.161H261.383C264.372 671.161 266.282 669.427 266.282 666.708V666.685C266.282 663.966 264.372 662.22 261.383 662.22H258.852V658.353H255.934V671.161ZM261.008 664.47C262.426 664.47 263.34 665.349 263.34 666.673V666.696C263.34 668.009 262.438 668.911 261.008 668.911H258.852V664.47H261.008ZM24.0938 700.161H27.0117V689.614H32.2969V700.161H35.2148V687.353H24.0938V700.161ZM44.263 700.419C48.095 700.419 50.427 697.911 50.427 693.763V693.739C50.427 689.614 48.0833 687.106 44.263 687.106C40.4544 687.106 38.0989 689.626 38.0989 693.739V693.763C38.0989 697.911 40.4192 700.419 44.263 700.419ZM44.263 698.052C42.2356 698.052 41.0755 696.47 41.0755 693.774V693.751C41.0755 691.056 42.2356 689.462 44.263 689.462C46.2786 689.462 47.4388 691.056 47.4388 693.751V693.774C47.4388 696.47 46.2903 698.052 44.263 698.052ZM62.3345 687.353H51.5298V689.614H55.4673V700.161H58.3853V689.614H62.3345V687.353ZM64.8202 704.415H67.7381V698.122H67.9373C68.6053 699.505 70.0702 700.372 71.828 700.372C75.0741 700.372 77.0897 697.853 77.0897 693.774V693.751C77.0897 689.696 75.0389 687.142 71.828 687.142C70.035 687.142 68.6405 687.962 67.9373 689.356H67.7381V687.353H64.8202V704.415ZM70.9139 697.911C68.9334 697.911 67.703 696.329 67.703 693.763V693.739C67.703 691.173 68.9334 689.603 70.9139 689.603C72.9061 689.603 74.1131 691.173 74.1131 693.751V693.774C74.1131 696.341 72.9061 697.911 70.9139 697.911ZM85.5167 700.419C89.3488 700.419 91.6808 697.911 91.6808 693.763V693.739C91.6808 689.614 89.337 687.106 85.5167 687.106C81.7081 687.106 79.3527 689.626 79.3527 693.739V693.763C79.3527 697.911 81.673 700.419 85.5167 700.419ZM85.5167 698.052C83.4894 698.052 82.3292 696.47 82.3292 693.774V693.751C82.3292 691.056 83.4894 689.462 85.5167 689.462C87.5323 689.462 88.6925 691.056 88.6925 693.751V693.774C88.6925 696.47 87.5441 698.052 85.5167 698.052ZM103.19 689.614V687.353H94.5531V700.161H97.4711V689.614H103.19ZM109.027 700.372C110.715 700.372 112.074 699.646 112.777 698.403H112.976V700.161H115.859V691.407C115.859 688.7 114.007 687.106 110.715 687.106C107.668 687.106 105.605 688.536 105.324 690.692L105.312 690.798H108.066L108.078 690.751C108.371 689.907 109.238 689.427 110.574 689.427C112.144 689.427 112.976 690.13 112.976 691.407V692.509L109.683 692.708C106.566 692.896 104.82 694.231 104.82 696.517V696.54C104.82 698.872 106.59 700.372 109.027 700.372ZM107.703 696.399V696.376C107.703 695.321 108.465 694.724 110.093 694.618L112.976 694.431V695.462C112.976 696.985 111.675 698.134 109.918 698.134C108.629 698.134 107.703 697.489 107.703 696.399ZM129.091 687.353H118.286V689.614H122.224V700.161H125.142V689.614H129.091V687.353ZM131.565 700.161H137.014C140.002 700.161 141.912 698.427 141.912 695.708V695.685C141.912 692.966 140.002 691.22 137.014 691.22H134.483V687.353H131.565V700.161ZM136.639 693.47C138.057 693.47 138.971 694.349 138.971 695.673V695.696C138.971 697.009 138.069 697.911 136.639 697.911H134.483V693.47H136.639ZM150.762 700.161H153.645L159.036 691.536H159.282V700.161H162.165V687.353H159.282L153.88 695.931H153.645V687.353H150.762V700.161ZM171.788 700.161H174.706V689.614H179.992V700.161H182.91V687.353H171.788V700.161ZM191.958 700.419C195.79 700.419 198.122 697.911 198.122 693.763V693.739C198.122 689.614 195.778 687.106 191.958 687.106C188.149 687.106 185.794 689.626 185.794 693.739V693.763C185.794 697.911 188.114 700.419 191.958 700.419ZM191.958 698.052C189.93 698.052 188.77 696.47 188.77 693.774V693.751C188.77 691.056 189.93 689.462 191.958 689.462C193.973 689.462 195.133 691.056 195.133 693.751V693.774C195.133 696.47 193.985 698.052 191.958 698.052ZM210.029 687.353H199.225V689.614H203.162V700.161H206.08V689.614H210.029V687.353ZM212.515 704.415H215.433V698.122H215.632C216.3 699.505 217.765 700.372 219.523 700.372C222.769 700.372 224.784 697.853 224.784 693.774V693.751C224.784 689.696 222.734 687.142 219.523 687.142C217.73 687.142 216.335 687.962 215.632 689.356H215.433V687.353H212.515V704.415ZM218.609 697.911C216.628 697.911 215.398 696.329 215.398 693.763V693.739C215.398 691.173 216.628 689.603 218.609 689.603C220.601 689.603 221.808 691.173 221.808 693.751V693.774C221.808 696.341 220.601 697.911 218.609 697.911ZM233.211 700.419C237.043 700.419 239.375 697.911 239.375 693.763V693.739C239.375 689.614 237.032 687.106 233.211 687.106C229.403 687.106 227.047 689.626 227.047 693.739V693.763C227.047 697.911 229.368 700.419 233.211 700.419ZM233.211 698.052C231.184 698.052 230.024 696.47 230.024 693.774V693.751C230.024 691.056 231.184 689.462 233.211 689.462C235.227 689.462 236.387 691.056 236.387 693.751V693.774C236.387 696.47 235.239 698.052 233.211 698.052ZM250.885 689.614V687.353H242.248V700.161H245.166V689.614H250.885ZM256.722 700.372C258.409 700.372 259.769 699.646 260.472 698.403H260.671V700.161H263.554V691.407C263.554 688.7 261.702 687.106 258.409 687.106C255.362 687.106 253.3 688.536 253.019 690.692L253.007 690.798H255.761L255.773 690.751C256.065 689.907 256.933 689.427 258.269 689.427C259.839 689.427 260.671 690.13 260.671 691.407V692.509L257.378 692.708C254.261 692.896 252.515 694.231 252.515 696.517V696.54C252.515 698.872 254.284 700.372 256.722 700.372ZM255.398 696.399V696.376C255.398 695.321 256.159 694.724 257.788 694.618L260.671 694.431V695.462C260.671 696.985 259.37 698.134 257.612 698.134C256.323 698.134 255.398 697.489 255.398 696.399ZM272.707 685.606C275.285 685.606 277.008 683.931 277.008 681.61H274.711C274.688 682.864 273.938 683.907 272.707 683.907C271.477 683.907 270.715 682.864 270.692 681.61H268.407C268.407 683.931 270.117 685.606 272.707 685.606ZM267 700.161H269.883L275.274 691.536H275.52V700.161H278.403V687.353H275.52L270.117 695.931H269.883V687.353H267V700.161Z" fill="white"/>
<path d="M360.031 46.7463L364.331 42.4563C364.519 42.268 364.625 42.0126 364.625 41.7463C364.625 41.48 364.519 41.2246 364.331 41.0363C364.143 40.848 363.887 40.7422 363.621 40.7422C363.355 40.7422 363.099 40.848 362.911 41.0363L358.621 45.3363L354.331 41.0363C354.143 40.848 353.887 40.7422 353.621 40.7422C353.355 40.7422 353.099 40.848 352.911 41.0363C352.723 41.2246 352.617 41.48 352.617 41.7463C352.617 42.0126 352.723 42.268 352.911 42.4563L357.211 46.7463L352.911 51.0363C352.817 51.1292 352.743 51.2398 352.692 51.3617C352.641 51.4836 352.615 51.6143 352.615 51.7463C352.615 51.8783 352.641 52.009 352.692 52.1309C352.743 52.2527 352.817 52.3633 352.911 52.4563C353.004 52.55 353.115 52.6244 353.236 52.6752C353.358 52.7259 353.489 52.7521 353.621 52.7521C353.753 52.7521 353.884 52.7259 354.006 52.6752C354.127 52.6244 354.238 52.55 354.331 52.4563L358.621 48.1563L362.911 52.4563C363.004 52.55 363.115 52.6244 363.236 52.6752C363.358 52.7259 363.489 52.7521 363.621 52.7521C363.753 52.7521 363.884 52.7259 364.006 52.6752C364.127 52.6244 364.238 52.55 364.331 52.4563C364.425 52.3633 364.499 52.2527 364.55 52.1309C364.601 52.009 364.627 51.8783 364.627 51.7463C364.627 51.6143 364.601 51.4836 364.55 51.3617C364.499 51.2398 364.425 51.1292 364.331 51.0363L360.031 46.7463Z" fill="white"/>
<rect x="22.6035" y="17.7461" width="67.3981" height="2" rx="1" fill="white"/>
<rect x="91.9336" y="17.7461" width="67.3981" height="2" rx="1" fill="white"/>
<rect x="161.262" y="17.7461" width="67.3981" height="2" rx="1" fill="white"/>
<rect x="230.592" y="17.7461" width="67.3981" height="2" rx="1" fill="#D9D9D9" fill-opacity="0.2"/>
<rect x="299.921" y="17.7461" width="67.3981" height="2" rx="1" fill="#D9D9D9" fill-opacity="0.2"/>
<path d="M294.048 114.813L309.972 105.525L300.899 121.573L300.475 122.322L301.337 122.319L319.772 122.237L303.89 131.598L303.148 132.035L303.896 132.463L319.902 141.609L301.468 141.776L300.606 141.784L301.04 142.528L310.329 158.452L294.281 149.379L293.531 148.955L293.535 149.816L293.617 168.251L284.256 152.37L283.818 151.628L283.391 152.376L274.244 168.382L274.078 149.948L274.07 149.086L273.326 149.52L257.402 158.809L266.475 142.761L266.899 142.011L266.037 142.015L247.602 142.097L263.484 132.735L264.226 132.298L263.478 131.871L247.472 122.724L265.906 122.558L266.767 122.55L266.333 121.806L257.045 105.881L273.093 114.954L273.843 115.378L273.839 114.517L273.757 96.0819L283.118 111.963L283.556 112.706L283.983 111.958L293.13 95.9513L293.296 114.386L293.304 115.247L294.048 114.813Z" fill="#33FF00" stroke="#2C2C2C"/>
<path d="M128.714 220.333L158.081 203.203L141.349 232.798L140.925 233.548L141.786 233.545L175.784 233.393L146.496 250.658L145.754 251.095L146.501 251.522L176.02 268.39L142.023 268.697L141.162 268.705L141.596 269.449L158.726 298.817L129.13 282.084L128.38 281.66L128.384 282.522L128.536 316.519L111.271 287.231L110.834 286.489L110.406 287.237L93.5386 316.755L93.2315 282.759L93.2237 281.897L92.4796 282.331L63.1122 299.461L79.8447 269.866L80.2686 269.116L79.4072 269.12L45.4094 269.271L74.6979 252.007L75.44 251.569L74.6921 251.142L45.1734 234.274L79.1702 233.967L80.0316 233.959L79.5975 233.215L62.4675 203.848L92.0632 220.58L92.8131 221.004L92.8093 220.142L92.6579 186.145L109.922 215.433L110.36 216.175L110.787 215.427L127.655 185.909L127.962 219.905L127.97 220.767L128.714 220.333Z" fill="#33FF00" stroke="#2C2C2C"/>
<path d="M309.888 358L325.131 349.109L316.446 364.47L316.022 365.22L316.884 365.216L334.529 365.137L319.328 374.098L318.586 374.535L319.334 374.963L334.655 383.718L317.01 383.877L316.148 383.885L316.582 384.629L325.473 399.871L310.112 391.187L309.362 390.763L309.366 391.624L309.445 409.27L300.484 394.068L300.047 393.326L299.619 394.074L290.864 409.395L290.705 391.75L290.697 390.889L289.953 391.323L274.711 400.214L283.395 384.853L283.819 384.103L282.958 384.107L265.312 384.185L280.514 375.225L281.256 374.787L280.508 374.36L265.187 365.605L282.832 365.445L283.693 365.438L283.259 364.694L274.369 349.451L289.729 358.136L290.479 358.56L290.475 357.698L290.397 340.053L299.358 355.254L299.795 355.996L300.222 355.248L308.977 339.927L309.137 357.572L309.144 358.434L309.888 358Z" fill="#33FF00" stroke="#2C2C2C"/>
</svg>
