<svg width="391" height="731" viewBox="0 0 391 731" fill="none" xmlns="http://www.w3.org/2000/svg">
<rect x="0.810547" y="0.161133" width="390" height="730" rx="12" fill="#2C2C2C"/>
<path d="M25.9746 545.161H57.6328V519.796H51.1992V539.976H45.0293V519.796H38.5957V539.976H32.4258V519.796H25.9746V545.161ZM68.4446 545.46C70.9407 545.46 73.0325 544.405 73.8938 542.735H74.2278V545.161H80.345V531.819C80.345 527.601 77.2688 525.14 71.8723 525.14C66.5813 525.14 63.2063 527.513 62.8548 531.116L62.8372 531.327H68.4798L68.5149 531.239C68.8841 530.255 69.886 529.71 71.5208 529.71C73.2434 529.71 74.2278 530.501 74.2278 531.819V533.349L69.9563 533.595C64.9114 533.911 62.1341 535.968 62.1341 539.519V539.554C62.1341 543.122 64.7005 545.46 68.4446 545.46ZM68.1282 539.114V539.079C68.1282 537.919 69.095 537.181 70.9407 537.058L74.2278 536.847V538.13C74.2278 539.817 72.6985 541.118 70.7298 541.118C69.1653 541.118 68.1282 540.345 68.1282 539.114ZM99.2427 530.167V525.597H85.1275V545.161H91.3677V530.167H99.2427ZM123.398 545.161H129.497V540.837H132.661V535.81H129.497V519.796H120.532C117.245 524.964 114.028 530.29 110.935 535.968V540.837H123.398V545.161ZM116.525 536.038V535.722C118.564 531.907 120.972 527.935 123.239 524.401H123.556V536.038H116.525ZM141.135 533.472C143.245 533.472 144.668 532.013 144.668 530.026C144.668 528.04 143.245 526.563 141.135 526.563C139.043 526.563 137.62 528.04 137.62 530.026C137.62 532.013 139.043 533.472 141.135 533.472ZM141.135 545.741C143.245 545.741 144.668 544.265 144.668 542.278C144.668 540.292 143.245 538.833 141.135 538.833C139.043 538.833 137.62 540.292 137.62 542.278C137.62 544.265 139.043 545.741 141.135 545.741Z" fill="#33FF00"/>
<path d="M32.0684 584.583C35.9707 584.583 38.7715 582.321 39.2168 578.935V578.853H36.252L36.2402 578.911C35.8066 580.774 34.2129 581.97 32.0684 581.97C29.1855 581.97 27.3926 579.567 27.3926 575.712V575.688C27.3926 571.845 29.1855 569.442 32.0566 569.442C34.1895 569.442 35.8066 570.767 36.2402 572.771L36.252 572.817H39.2168V572.724C38.8184 569.267 35.9004 566.829 32.0566 566.829C27.2637 566.829 24.2988 570.216 24.2988 575.7V575.724C24.2988 581.185 27.2754 584.583 32.0684 584.583ZM48.3938 588.415H51.2415V584.337C55.3313 584.255 58.0266 581.735 58.0266 577.774V577.751C58.0266 573.743 55.3548 571.271 51.2415 571.188V567.157H48.3938V571.188C44.2923 571.259 41.6087 573.778 41.6087 577.739V577.763C41.6087 581.759 44.2805 584.243 48.3938 584.337V588.415ZM48.4173 582.052C46.0501 581.981 44.5501 580.399 44.5501 577.774V577.751C44.5501 575.126 46.0618 573.521 48.4173 573.462V582.052ZM51.218 582.052V573.462C53.5735 573.532 55.0735 575.114 55.0735 577.751V577.774C55.0735 580.388 53.5618 581.993 51.218 582.052ZM66.4302 584.419C70.2623 584.419 72.5943 581.911 72.5943 577.763V577.739C72.5943 573.614 70.2505 571.106 66.4302 571.106C62.6216 571.106 60.2662 573.626 60.2662 577.739V577.763C60.2662 581.911 62.5865 584.419 66.4302 584.419ZM66.4302 582.052C64.4029 582.052 63.2427 580.47 63.2427 577.774V577.751C63.2427 575.056 64.4029 573.462 66.4302 573.462C68.4459 573.462 69.606 575.056 69.606 577.751V577.774C69.606 580.47 68.4576 582.052 66.4302 582.052ZM79.0409 578.63L83.3065 584.161H86.8338L81.4198 577.282L86.5877 571.353H83.2362L79.0174 576.497H78.3846V571.353H75.4666V584.161H78.3846V578.63H79.0409ZM90.0695 588.661C92.9054 588.661 94.3702 587.642 95.4718 584.431L100.066 571.353H96.9952L94.0187 581.36H93.796L90.8077 571.353H87.6202L92.2023 584.173L92.0499 584.759C91.7335 585.919 91.0187 586.411 89.8234 586.411C89.5187 586.411 89.1905 586.399 88.9562 586.376V588.614C89.3077 588.649 89.7179 588.661 90.0695 588.661ZM107.508 584.419C110.754 584.419 112.641 582.673 113.063 580.048L113.086 579.954L110.332 579.966L110.309 580.013C109.946 581.36 109.02 582.052 107.508 582.052C105.528 582.052 104.344 580.458 104.344 577.739V577.716C104.344 575.032 105.516 573.462 107.508 573.462C109.102 573.462 110.051 574.353 110.321 575.595L110.332 575.63H113.086V575.583C112.758 572.935 110.789 571.106 107.496 571.106C103.641 571.106 101.379 573.579 101.379 577.716V577.739C101.379 581.923 103.653 584.419 107.508 584.419ZM115.806 584.161H118.689L124.08 575.536H124.326V584.161H127.209V571.353H124.326L118.924 579.931H118.689V571.353H115.806V584.161ZM130.726 588.415H133.644V582.122H133.843C134.511 583.505 135.976 584.372 137.733 584.372C140.979 584.372 142.995 581.853 142.995 577.774V577.751C142.995 573.696 140.944 571.142 137.733 571.142C135.94 571.142 134.546 571.962 133.843 573.356H133.644V571.353H130.726V588.415ZM136.819 581.911C134.839 581.911 133.608 580.329 133.608 577.763V577.739C133.608 575.173 134.839 573.603 136.819 573.603C138.811 573.603 140.019 575.173 140.019 577.751V577.774C140.019 580.341 138.811 581.911 136.819 581.911ZM151.586 569.606C154.164 569.606 155.887 567.931 155.887 565.61H153.59C153.567 566.864 152.817 567.907 151.586 567.907C150.356 567.907 149.594 566.864 149.571 565.61H147.285C147.285 567.931 148.996 569.606 151.586 569.606ZM145.879 584.161H148.762L154.153 575.536H154.399V584.161H157.281V571.353H154.399L148.996 579.931H148.762V571.353H145.879V584.161ZM166.294 584.419C169.541 584.419 171.427 582.673 171.849 580.048L171.873 579.954L169.119 579.966L169.095 580.013C168.732 581.36 167.806 582.052 166.294 582.052C164.314 582.052 163.13 580.458 163.13 577.739V577.716C163.13 575.032 164.302 573.462 166.294 573.462C167.888 573.462 168.837 574.353 169.107 575.595L169.119 575.63H171.873V575.583C171.544 572.935 169.576 571.106 166.283 571.106C162.427 571.106 160.166 573.579 160.166 577.716V577.739C160.166 581.923 162.439 584.419 166.294 584.419ZM181.389 584.161H184.261V571.353H178.975C175.987 571.353 174.018 573.028 174.018 575.7V575.724C174.018 577.481 175.085 578.853 176.831 579.368L173.397 584.161H176.725L179.725 579.849H181.389V584.161ZM179.198 577.704C177.804 577.704 176.936 576.86 176.936 575.712V575.688C176.936 574.411 177.792 573.591 179.198 573.591H181.389V577.704H179.198ZM202.204 584.161H205.122V571.353H202.204V576.427H196.802V571.353H193.884V584.161H196.802V578.688H202.204V584.161ZM212.131 584.372C213.819 584.372 215.178 583.646 215.881 582.403H216.081V584.161H218.964V575.407C218.964 572.7 217.112 571.106 213.819 571.106C210.772 571.106 208.71 572.536 208.428 574.692L208.417 574.798H211.171L211.182 574.751C211.475 573.907 212.342 573.427 213.678 573.427C215.249 573.427 216.081 574.13 216.081 575.407V576.509L212.788 576.708C209.671 576.896 207.924 578.231 207.924 580.517V580.54C207.924 582.872 209.694 584.372 212.131 584.372ZM210.807 580.399V580.376C210.807 579.321 211.569 578.724 213.198 578.618L216.081 578.431V579.462C216.081 580.985 214.78 582.134 213.022 582.134C211.733 582.134 210.807 581.489 210.807 580.399ZM234.036 584.419C237.282 584.419 239.169 582.673 239.591 580.048L239.614 579.954L236.861 579.966L236.837 580.013C236.474 581.36 235.548 582.052 234.036 582.052C232.056 582.052 230.872 580.458 230.872 577.739V577.716C230.872 575.032 232.044 573.462 234.036 573.462C235.63 573.462 236.579 574.353 236.849 575.595L236.861 575.63H239.614V575.583C239.286 572.935 237.318 571.106 234.025 571.106C230.169 571.106 227.907 573.579 227.907 577.716V577.739C227.907 581.923 230.181 584.419 234.036 584.419ZM247.784 584.419C251.264 584.419 252.975 582.415 253.385 580.763L253.42 580.657H250.643L250.608 580.739C250.327 581.325 249.424 582.122 247.842 582.122C245.862 582.122 244.62 580.786 244.584 578.489H253.538V577.528C253.538 573.661 251.288 571.106 247.643 571.106C243.999 571.106 241.666 573.743 241.666 577.774V577.786C241.666 581.864 243.975 584.419 247.784 584.419ZM247.678 573.392C249.307 573.392 250.491 574.435 250.69 576.532H244.608C244.831 574.493 246.049 573.392 247.678 573.392ZM262.058 584.431C265.879 584.431 268.234 581.853 268.234 577.786V577.763C268.234 574.013 266.031 571.599 262.609 571.599C260.629 571.599 259.14 572.442 258.308 573.978H258.097L258.133 573.743C258.566 570.544 259.855 569.231 262.75 569.126L264.215 569.067C265.586 569.009 266.922 568.751 267.402 568.435V566.079C266.383 566.442 265.094 566.63 264.051 566.665L262.539 566.724C257.851 566.911 255.812 569.946 255.812 576.614V576.638C255.812 581.688 257.98 584.431 262.058 584.431ZM262.023 582.063C259.961 582.063 258.777 580.481 258.777 577.845V577.821C258.777 575.325 259.972 573.884 262.023 573.884C264.074 573.884 265.258 575.325 265.258 577.821V577.845C265.258 580.47 264.074 582.063 262.023 582.063ZM276.638 584.419C280.118 584.419 281.829 582.415 282.239 580.763L282.274 580.657H279.497L279.462 580.739C279.181 581.325 278.278 582.122 276.696 582.122C274.716 582.122 273.474 580.786 273.439 578.489H282.392V577.528C282.392 573.661 280.142 571.106 276.497 571.106C272.853 571.106 270.521 573.743 270.521 577.774V577.786C270.521 581.864 272.829 584.419 276.638 584.419ZM276.532 573.392C278.161 573.392 279.345 574.435 279.544 576.532H273.462C273.685 574.493 274.903 573.392 276.532 573.392ZM287.315 575.688C288.393 575.688 289.178 574.88 289.178 573.849C289.178 572.806 288.393 571.997 287.315 571.997C286.248 571.997 285.451 572.806 285.451 573.849C285.451 574.88 286.248 575.688 287.315 575.688ZM287.315 584.396C288.393 584.396 289.178 583.575 289.178 582.544C289.178 581.501 288.393 580.692 287.315 580.692C286.248 580.692 285.451 581.501 285.451 582.544C285.451 583.575 286.248 584.396 287.315 584.396ZM33.0176 613.161H35.9355V600.353H33.0176V605.427H27.6152V600.353H24.6973V613.161H27.6152V607.688H33.0176V613.161ZM42.9446 613.372C44.6321 613.372 45.9915 612.646 46.6946 611.403H46.8938V613.161H49.7766V604.407C49.7766 601.7 47.9251 600.106 44.6321 600.106C41.5852 600.106 39.5227 601.536 39.2415 603.692L39.2298 603.798H41.9837L41.9954 603.751C42.2884 602.907 43.1555 602.427 44.4915 602.427C46.0618 602.427 46.8938 603.13 46.8938 604.407V605.509L43.6009 605.708C40.4837 605.896 38.7376 607.231 38.7376 609.517V609.54C38.7376 611.872 40.5071 613.372 42.9446 613.372ZM41.6204 609.399V609.376C41.6204 608.321 42.3821 607.724 44.011 607.618L46.8938 607.431V608.462C46.8938 609.985 45.593 611.134 43.8352 611.134C42.5462 611.134 41.6204 610.489 41.6204 609.399ZM58.0279 613.431C61.3209 613.431 63.4185 611.778 63.4185 609.399V609.376C63.4185 607.946 62.5513 606.915 60.7701 606.563V606.364C62.1529 606.048 63.0084 605.005 63.0084 603.657V603.634C63.0084 601.466 61.1334 600.095 58.0982 600.095C54.9576 600.095 53.1646 601.606 52.8716 603.845L52.8599 603.938H55.6255L55.6373 603.88C55.813 602.954 56.692 602.356 58.0045 602.356C59.4459 602.356 60.1607 603.06 60.1607 603.985V604.009C60.1607 605.063 59.4576 605.673 57.9693 605.673H56.1412V607.642H57.981C59.6334 607.642 60.524 608.216 60.524 609.353V609.376C60.524 610.431 59.5865 611.169 57.9927 611.169C56.6216 611.169 55.649 610.595 55.3795 609.61L55.356 609.528H52.5201L52.5318 609.634C52.813 612.118 55.1216 613.431 58.0279 613.431ZM71.7284 613.419C75.5604 613.419 77.8924 610.911 77.8924 606.763V606.739C77.8924 602.614 75.5487 600.106 71.7284 600.106C67.9198 600.106 65.5643 602.626 65.5643 606.739V606.763C65.5643 610.911 67.8846 613.419 71.7284 613.419ZM71.7284 611.052C69.701 611.052 68.5409 609.47 68.5409 606.774V606.751C68.5409 604.056 69.701 602.462 71.7284 602.462C73.744 602.462 74.9041 604.056 74.9041 606.751V606.774C74.9041 609.47 73.7557 611.052 71.7284 611.052ZM80.7648 613.161H86.9054C89.753 613.161 91.4874 611.696 91.4874 609.517V609.493C91.4874 607.946 90.3741 606.774 88.6866 606.587V606.388C89.9874 606.165 90.9132 604.981 90.9132 603.646V603.622C90.9132 601.653 89.4015 600.353 86.8234 600.353H80.7648V613.161ZM83.6476 605.673V602.368H86.132C87.421 602.368 88.0421 603.024 88.0421 603.997V604.021C88.0421 605.087 87.339 605.673 85.8976 605.673H83.6476ZM83.6476 611.146V607.63H86.1085C87.7023 607.63 88.4991 608.204 88.4991 609.364V609.388C88.4991 610.489 87.7843 611.146 86.378 611.146H83.6476ZM94.4535 613.161H97.3363L102.727 604.536H102.973V613.161H105.856V600.353H102.973L97.5707 608.931H97.3363V600.353H94.4535V613.161ZM120.987 613.419C124.233 613.419 126.12 611.673 126.542 609.048L126.565 608.954L123.811 608.966L123.788 609.013C123.425 610.36 122.499 611.052 120.987 611.052C119.007 611.052 117.823 609.458 117.823 606.739V606.716C117.823 604.032 118.995 602.462 120.987 602.462C122.581 602.462 123.53 603.353 123.8 604.595L123.811 604.63H126.565V604.583C126.237 601.935 124.269 600.106 120.976 600.106C117.12 600.106 114.858 602.579 114.858 606.716V606.739C114.858 610.923 117.132 613.419 120.987 613.419ZM129.285 613.161H135.426C138.274 613.161 140.008 611.696 140.008 609.517V609.493C140.008 607.946 138.895 606.774 137.207 606.587V606.388C138.508 606.165 139.434 604.981 139.434 603.646V603.622C139.434 601.653 137.922 600.353 135.344 600.353H129.285V613.161ZM132.168 605.673V602.368H134.653C135.942 602.368 136.563 603.024 136.563 603.997V604.021C136.563 605.087 135.86 605.673 134.418 605.673H132.168ZM132.168 611.146V607.63H134.629C136.223 607.63 137.02 608.204 137.02 609.364V609.388C137.02 610.489 136.305 611.146 134.899 611.146H132.168ZM148.353 613.419C152.185 613.419 154.517 610.911 154.517 606.763V606.739C154.517 602.614 152.173 600.106 148.353 600.106C144.544 600.106 142.189 602.626 142.189 606.739V606.763C142.189 610.911 144.509 613.419 148.353 613.419ZM148.353 611.052C146.326 611.052 145.166 609.47 145.166 606.774V606.751C145.166 604.056 146.326 602.462 148.353 602.462C150.369 602.462 151.529 604.056 151.529 606.751V606.774C151.529 609.47 150.38 611.052 148.353 611.052ZM162.886 613.419C166.366 613.419 168.077 611.415 168.487 609.763L168.522 609.657H165.745L165.71 609.739C165.429 610.325 164.526 611.122 162.944 611.122C160.964 611.122 159.721 609.786 159.686 607.489H168.639V606.528C168.639 602.661 166.389 600.106 162.745 600.106C159.1 600.106 156.768 602.743 156.768 606.774V606.786C156.768 610.864 159.077 613.419 162.886 613.419ZM162.78 602.392C164.409 602.392 165.593 603.435 165.792 605.532H159.71C159.932 603.493 161.151 602.392 162.78 602.392ZM177.619 613.161H180.501L185.892 604.536H186.138V613.161H189.021V600.353H186.138L180.736 608.931H180.501V600.353H177.619V613.161ZM195.315 613.161V604.419H195.538L199.053 612.587H201.139L204.667 604.419H204.889V613.161H207.678V600.353H204.034L200.237 609.271H200.026L196.241 600.353H192.526V613.161H195.315ZM218.191 613.161H221.062V600.353H215.777C212.789 600.353 210.82 602.028 210.82 604.7V604.724C210.82 606.481 211.887 607.853 213.633 608.368L210.199 613.161H213.527L216.527 608.849H218.191V613.161ZM216 606.704C214.605 606.704 213.738 605.86 213.738 604.712V604.688C213.738 603.411 214.594 602.591 216 602.591H218.191V606.704H216ZM226.63 613.396C227.708 613.396 228.493 612.587 228.493 611.544C228.493 610.501 227.708 609.692 226.63 609.692C225.564 609.692 224.767 610.501 224.767 611.544C224.767 612.587 225.564 613.396 226.63 613.396ZM245.676 613.583C249.578 613.583 252.379 611.321 252.824 607.935V607.853H249.859L249.847 607.911C249.414 609.774 247.82 610.97 245.676 610.97C242.793 610.97 241 608.567 241 604.712V604.688C241 600.845 242.793 598.442 245.664 598.442C247.797 598.442 249.414 599.767 249.847 601.771L249.859 601.817H252.824V601.724C252.426 598.267 249.508 595.829 245.664 595.829C240.871 595.829 237.906 599.216 237.906 604.7V604.724C237.906 610.185 240.883 613.583 245.676 613.583ZM259.411 607.63L263.677 613.161H267.204L261.79 606.282L266.958 600.353H263.606L259.388 605.497H258.755V600.353H255.837V613.161H258.755V607.63H259.411ZM272.608 613.372C274.295 613.372 275.655 612.646 276.358 611.403H276.557V613.161H279.44V604.407C279.44 601.7 277.588 600.106 274.295 600.106C271.248 600.106 269.186 601.536 268.905 603.692L268.893 603.798H271.647L271.659 603.751C271.951 602.907 272.819 602.427 274.155 602.427C275.725 602.427 276.557 603.13 276.557 604.407V605.509L273.264 605.708C270.147 605.896 268.401 607.231 268.401 609.517V609.54C268.401 611.872 270.17 613.372 272.608 613.372ZM271.284 609.399V609.376C271.284 608.321 272.045 607.724 273.674 607.618L276.557 607.431V608.462C276.557 609.985 275.256 611.134 273.498 611.134C272.209 611.134 271.284 610.489 271.284 609.399ZM285.007 613.161L288.886 607.583H289.625V613.161H292.461V607.583H293.211L297.089 613.161H300.535L295.531 606.271L300.265 600.353H296.984L293.175 605.544H292.461V600.353H289.625V605.544H288.91L285.113 600.353H281.808L286.566 606.306L281.574 613.161H285.007ZM302.739 613.161H305.622L311.013 604.536H311.259V613.161H314.141V600.353H311.259L305.856 608.931H305.622V600.353H302.739V613.161ZM317.154 617.626H319.147L321.186 610.583H318.174L317.154 617.626ZM28.2715 636.63L32.5371 642.161H36.0645L30.6504 635.282L35.8184 629.353H32.4668L28.248 634.497H27.6152V629.353H24.6973V642.161H27.6152V636.63H28.2715ZM41.468 642.372C43.1555 642.372 44.5149 641.646 45.218 640.403H45.4173V642.161H48.3001V633.407C48.3001 630.7 46.4485 629.106 43.1555 629.106C40.1087 629.106 38.0462 630.536 37.7649 632.692L37.7532 632.798H40.5071L40.5188 632.751C40.8118 631.907 41.679 631.427 43.0149 631.427C44.5852 631.427 45.4173 632.13 45.4173 633.407V634.509L42.1243 634.708C39.0071 634.896 37.261 636.231 37.261 638.517V638.54C37.261 640.872 39.0305 642.372 41.468 642.372ZM40.1438 638.399V638.376C40.1438 637.321 40.9055 636.724 42.5345 636.618L45.4173 636.431V637.462C45.4173 638.985 44.1165 640.134 42.3587 640.134C41.0696 640.134 40.1438 639.489 40.1438 638.399ZM55.3209 636.63L59.5865 642.161H63.1138L57.6998 635.282L62.8677 629.353H59.5162L55.2974 634.497H54.6646V629.353H51.7466V642.161H54.6646V636.63H55.3209ZM76.3585 642.431C79.6515 642.431 81.7491 640.778 81.7491 638.399V638.376C81.7491 636.946 80.882 635.915 79.1007 635.563V635.364C80.4835 635.048 81.339 634.005 81.339 632.657V632.634C81.339 630.466 79.464 629.095 76.4288 629.095C73.2882 629.095 71.4952 630.606 71.2023 632.845L71.1905 632.938H73.9562L73.9679 632.88C74.1437 631.954 75.0226 631.356 76.3351 631.356C77.7765 631.356 78.4913 632.06 78.4913 632.985V633.009C78.4913 634.063 77.7882 634.673 76.2999 634.673H74.4718V636.642H76.3116C77.964 636.642 78.8546 637.216 78.8546 638.353V638.376C78.8546 639.431 77.9171 640.169 76.3234 640.169C74.9523 640.169 73.9796 639.595 73.7101 638.61L73.6866 638.528H70.8507L70.8624 638.634C71.1437 641.118 73.4523 642.431 76.3585 642.431ZM84.6801 642.161H90.8207C93.6684 642.161 95.4027 640.696 95.4027 638.517V638.493C95.4027 636.946 94.2895 635.774 92.602 635.587V635.388C93.9027 635.165 94.8285 633.981 94.8285 632.646V632.622C94.8285 630.653 93.3168 629.353 90.7387 629.353H84.6801V642.161ZM87.5629 634.673V631.368H90.0473C91.3363 631.368 91.9574 632.024 91.9574 632.997V633.021C91.9574 634.087 91.2543 634.673 89.8129 634.673H87.5629ZM87.5629 640.146V636.63H90.0238C91.6176 636.63 92.4145 637.204 92.4145 638.364V638.388C92.4145 639.489 91.6996 640.146 90.2934 640.146H87.5629ZM99.2829 646.661C102.119 646.661 103.584 645.642 104.685 642.431L109.279 629.353H106.209L103.232 639.36H103.009L100.021 629.353H96.8337L101.416 642.173L101.263 642.759C100.947 643.919 100.232 644.411 99.0368 644.411C98.7321 644.411 98.404 644.399 98.1696 644.376V646.614C98.5212 646.649 98.9313 646.661 99.2829 646.661ZM122.147 642.161V629.353H119.229V634.591C118.761 635.071 117.858 635.411 116.581 635.411C114.987 635.411 114.179 634.521 114.179 632.938V629.353H111.261V633.185C111.261 636.032 112.983 637.872 116.03 637.872C117.343 637.872 118.339 637.556 119.019 637.04H119.229V642.161H122.147ZM125.653 642.161H128.535L133.926 633.536H134.172V642.161H137.055V629.353H134.172L128.77 637.931H128.535V629.353H125.653V642.161ZM150.345 629.353H139.541V631.614H143.478V642.161H146.396V631.614H150.345V629.353ZM168.723 629.353H157.918V631.614H161.856V642.161H164.774V631.614H168.723V629.353ZM171.197 642.161H177.337C180.185 642.161 181.919 640.696 181.919 638.517V638.493C181.919 636.946 180.806 635.774 179.119 635.587V635.388C180.419 635.165 181.345 633.981 181.345 632.646V632.622C181.345 630.653 179.833 629.353 177.255 629.353H171.197V642.161ZM174.079 634.673V631.368H176.564C177.853 631.368 178.474 632.024 178.474 632.997V633.021C178.474 634.087 177.771 634.673 176.329 634.673H174.079ZM174.079 640.146V636.63H176.54C178.134 636.63 178.931 637.204 178.931 638.364V638.388C178.931 639.489 178.216 640.146 176.81 640.146H174.079ZM190.264 642.419C194.096 642.419 196.428 639.911 196.428 635.763V635.739C196.428 631.614 194.085 629.106 190.264 629.106C186.456 629.106 184.1 631.626 184.1 635.739V635.763C184.1 639.911 186.421 642.419 190.264 642.419ZM190.264 640.052C188.237 640.052 187.077 638.47 187.077 635.774V635.751C187.077 633.056 188.237 631.462 190.264 631.462C192.28 631.462 193.44 633.056 193.44 635.751V635.774C193.44 638.47 192.292 640.052 190.264 640.052ZM205.008 627.606C207.586 627.606 209.309 625.931 209.309 623.61H207.012C206.988 624.864 206.238 625.907 205.008 625.907C203.777 625.907 203.016 624.864 202.992 623.61H200.707C200.707 625.931 202.418 627.606 205.008 627.606ZM199.301 642.161H202.184L207.574 633.536H207.82V642.161H210.703V629.353H207.82L202.418 637.931H202.184V629.353H199.301V642.161ZM228.963 631.614V629.353H220.327V642.161H223.245V631.614H228.963ZM236.769 642.419C240.601 642.419 242.933 639.911 242.933 635.763V635.739C242.933 631.614 240.59 629.106 236.769 629.106C232.961 629.106 230.605 631.626 230.605 635.739V635.763C230.605 639.911 232.926 642.419 236.769 642.419ZM236.769 640.052C234.742 640.052 233.582 638.47 233.582 635.774V635.751C233.582 633.056 234.742 631.462 236.769 631.462C238.785 631.462 239.945 633.056 239.945 635.751V635.774C239.945 638.47 238.797 640.052 236.769 640.052ZM249.439 636.618L249.802 631.614H253.54V642.161H256.458V629.353H247.271L246.825 636.384C246.708 638.224 246.298 639.712 245.126 639.712C244.798 639.712 244.481 639.665 244.353 639.63V642.138C244.54 642.196 244.927 642.278 245.454 642.278C248.056 642.278 249.192 640.31 249.439 636.618ZM265.506 642.419C269.338 642.419 271.67 639.911 271.67 635.763V635.739C271.67 631.614 269.326 629.106 265.506 629.106C261.698 629.106 259.342 631.626 259.342 635.739V635.763C259.342 639.911 261.662 642.419 265.506 642.419ZM265.506 640.052C263.479 640.052 262.319 638.47 262.319 635.774V635.751C262.319 633.056 263.479 631.462 265.506 631.462C267.522 631.462 268.682 633.056 268.682 635.751V635.774C268.682 638.47 267.534 640.052 265.506 640.052ZM280.05 642.419C283.296 642.419 285.183 640.673 285.605 638.048L285.629 637.954L282.875 637.966L282.851 638.013C282.488 639.36 281.562 640.052 280.05 640.052C278.07 640.052 276.886 638.458 276.886 635.739V635.716C276.886 633.032 278.058 631.462 280.05 631.462C281.644 631.462 282.593 632.353 282.863 633.595L282.875 633.63H285.629V633.583C285.3 630.935 283.332 629.106 280.039 629.106C276.183 629.106 273.921 631.579 273.921 635.716V635.739C273.921 639.923 276.195 642.419 280.05 642.419ZM291.044 636.888H293.763V636.208C293.763 635.036 294.196 634.427 295.731 633.536C297.325 632.587 298.216 631.333 298.216 629.552V629.528C298.216 626.962 296.071 625.11 292.86 625.11C289.38 625.11 287.47 627.126 287.388 629.868V629.892L290.118 629.88L290.141 629.868C290.224 628.427 291.196 627.501 292.708 627.501C294.184 627.501 295.169 628.403 295.169 629.634V629.657C295.169 630.806 294.677 631.438 293.224 632.317C291.606 633.267 290.927 634.321 291.032 636.056L291.044 636.888ZM292.532 642.454C293.727 642.454 294.477 641.728 294.477 640.614C294.477 639.489 293.727 638.763 292.532 638.763C291.36 638.763 290.587 639.489 290.587 640.614C290.587 641.728 291.36 642.454 292.532 642.454ZM28.0371 671.161V663.872H28.6465L35.1855 671.161H38.9121L31.2012 662.454L38.373 654.251H34.9043L28.6348 661.54H28.0371V654.251H25.0137V671.161H28.0371ZM43.9993 671.372C45.6868 671.372 47.0462 670.646 47.7493 669.403H47.9485V671.161H50.8313V662.407C50.8313 659.7 48.9798 658.106 45.6868 658.106C42.6399 658.106 40.5774 659.536 40.2962 661.692L40.2845 661.798H43.0384L43.0501 661.751C43.343 660.907 44.2102 660.427 45.5462 660.427C47.1165 660.427 47.9485 661.13 47.9485 662.407V663.509L44.6555 663.708C41.5384 663.896 39.7923 665.231 39.7923 667.517V667.54C39.7923 669.872 41.5618 671.372 43.9993 671.372ZM42.6751 667.399V667.376C42.6751 666.321 43.4368 665.724 45.0657 665.618L47.9485 665.431V666.462C47.9485 667.985 46.6477 669.134 44.8899 669.134C43.6009 669.134 42.6751 668.489 42.6751 667.399ZM57.8521 665.63L62.1177 671.161H65.6451L60.231 664.282L65.399 658.353H62.0474L57.8287 663.497H57.1959V658.353H54.2779V671.161H57.1959V665.63H57.8521ZM72.9237 671.419C76.7557 671.419 79.0877 668.911 79.0877 664.763V664.739C79.0877 660.614 76.744 658.106 72.9237 658.106C69.1151 658.106 66.7596 660.626 66.7596 664.739V664.763C66.7596 668.911 69.0799 671.419 72.9237 671.419ZM72.9237 669.052C70.8963 669.052 69.7362 667.47 69.7362 664.774V664.751C69.7362 662.056 70.8963 660.462 72.9237 660.462C74.9393 660.462 76.0995 662.056 76.0995 664.751V664.774C76.0995 667.47 74.951 669.052 72.9237 669.052ZM81.9601 671.161H88.1007C90.9484 671.161 92.6827 669.696 92.6827 667.517V667.493C92.6827 665.946 91.5695 664.774 89.882 664.587V664.388C91.1827 664.165 92.1085 662.981 92.1085 661.646V661.622C92.1085 659.653 90.5968 658.353 88.0187 658.353H81.9601V671.161ZM84.8429 663.673V660.368H87.3273C88.6163 660.368 89.2374 661.024 89.2374 661.997V662.021C89.2374 663.087 88.5343 663.673 87.0929 663.673H84.8429ZM84.8429 669.146V665.63H87.3038C88.8976 665.63 89.6945 666.204 89.6945 667.364V667.388C89.6945 668.489 88.9796 669.146 87.5734 669.146H84.8429ZM99.1059 671.372C100.793 671.372 102.153 670.646 102.856 669.403H103.055V671.161H105.938V662.407C105.938 659.7 104.086 658.106 100.793 658.106C97.7465 658.106 95.684 659.536 95.4027 661.692L95.391 661.798H98.1449L98.1566 661.751C98.4496 660.907 99.3168 660.427 100.653 660.427C102.223 660.427 103.055 661.13 103.055 662.407V663.509L99.7621 663.708C96.6449 663.896 94.8988 665.231 94.8988 667.517V667.54C94.8988 669.872 96.6684 671.372 99.1059 671.372ZM97.7816 667.399V667.376C97.7816 666.321 98.5434 665.724 100.172 665.618L103.055 665.431V666.462C103.055 667.985 101.754 669.134 99.9965 669.134C98.7074 669.134 97.7816 668.489 97.7816 667.399ZM123.823 671.161H126.741V658.353H123.823V663.427H118.421V658.353H115.503V671.161H118.421V665.688H123.823V671.161ZM133.75 671.372C135.438 671.372 136.797 670.646 137.5 669.403H137.699V671.161H140.582V662.407C140.582 659.7 138.731 658.106 135.438 658.106C132.391 658.106 130.328 659.536 130.047 661.692L130.035 661.798H132.789L132.801 661.751C133.094 660.907 133.961 660.427 135.297 660.427C136.867 660.427 137.699 661.13 137.699 662.407V663.509L134.406 663.708C131.289 663.896 129.543 665.231 129.543 667.517V667.54C129.543 669.872 131.313 671.372 133.75 671.372ZM132.426 667.399V667.376C132.426 666.321 133.188 665.724 134.817 665.618L137.699 665.431V666.462C137.699 667.985 136.399 669.134 134.641 669.134C133.352 669.134 132.426 668.489 132.426 667.399ZM155.69 671.419C159.522 671.419 161.854 668.911 161.854 664.763V664.739C161.854 660.614 159.511 658.106 155.69 658.106C151.882 658.106 149.526 660.626 149.526 664.739V664.763C149.526 668.911 151.846 671.419 155.69 671.419ZM155.69 669.052C153.663 669.052 152.503 667.47 152.503 664.774V664.751C152.503 662.056 153.663 660.462 155.69 660.462C157.706 660.462 158.866 662.056 158.866 664.751V664.774C158.866 667.47 157.718 669.052 155.69 669.052ZM164.727 671.161H180.945V674.501H183.652V668.911H181.625V658.353H178.707V668.876H174.641V658.353H171.723V668.876H167.645V658.353H164.727V671.161ZM187.134 675.661C189.97 675.661 191.435 674.642 192.536 671.431L197.13 658.353H194.06L191.083 668.36H190.861L187.872 658.353H184.685L189.267 671.173L189.115 671.759C188.798 672.919 188.083 673.411 186.888 673.411C186.583 673.411 186.255 673.399 186.021 673.376V675.614C186.372 675.649 186.783 675.661 187.134 675.661ZM199.581 671.161H202.499V660.614H207.784V671.161H210.702V658.353H199.581V671.161ZM214.207 671.161H219.656C222.644 671.161 224.555 669.427 224.555 666.708V666.685C224.555 663.966 222.644 662.22 219.656 662.22H217.125V658.353H214.207V671.161ZM219.281 664.47C220.699 664.47 221.613 665.349 221.613 666.673V666.696C221.613 668.009 220.711 668.911 219.281 668.911H217.125V664.47H219.281ZM243.19 658.353H232.385V660.614H236.323V671.161H239.241V660.614H243.19V658.353ZM245.664 671.161H251.804C254.652 671.161 256.386 669.696 256.386 667.517V667.493C256.386 665.946 255.273 664.774 253.586 664.587V664.388C254.886 664.165 255.812 662.981 255.812 661.646V661.622C255.812 659.653 254.301 658.353 251.722 658.353H245.664V671.161ZM248.547 663.673V660.368H251.031C252.32 660.368 252.941 661.024 252.941 661.997V662.021C252.941 663.087 252.238 663.673 250.797 663.673H248.547ZM248.547 669.146V665.63H251.008C252.601 665.63 253.398 666.204 253.398 667.364V667.388C253.398 668.489 252.683 669.146 251.277 669.146H248.547ZM264.731 671.419C268.564 671.419 270.896 668.911 270.896 664.763V664.739C270.896 660.614 268.552 658.106 264.731 658.106C260.923 658.106 258.567 660.626 258.567 664.739V664.763C258.567 668.911 260.888 671.419 264.731 671.419ZM264.731 669.052C262.704 669.052 261.544 667.47 261.544 664.774V664.751C261.544 662.056 262.704 660.462 264.731 660.462C266.747 660.462 267.907 662.056 267.907 664.751V664.774C267.907 667.47 266.759 669.052 264.731 669.052ZM280.612 671.161H283.483V658.353H278.198C275.209 658.353 273.241 660.028 273.241 662.7V662.724C273.241 664.481 274.307 665.853 276.053 666.368L272.619 671.161H275.948L278.948 666.849H280.612V671.161ZM278.42 664.704C277.026 664.704 276.159 663.86 276.159 662.712V662.688C276.159 661.411 277.014 660.591 278.42 660.591H280.612V664.704H278.42ZM296.681 665.63L300.946 671.161H304.474L299.059 664.282L304.227 658.353H300.876L296.657 663.497H296.024V658.353H293.106V671.161H296.024V665.63H296.681ZM311.752 671.419C315.584 671.419 317.916 668.911 317.916 664.763V664.739C317.916 660.614 315.572 658.106 311.752 658.106C307.944 658.106 305.588 660.626 305.588 664.739V664.763C305.588 668.911 307.908 671.419 311.752 671.419ZM311.752 669.052C309.725 669.052 308.565 667.47 308.565 664.774V664.751C308.565 662.056 309.725 660.462 311.752 660.462C313.768 660.462 314.928 662.056 314.928 664.751V664.774C314.928 667.47 313.779 669.052 311.752 669.052ZM322.277 671.161L326.156 665.583H326.894V671.161H329.73V665.583H330.48L334.359 671.161H337.804L332.8 664.271L337.535 658.353H334.253L330.445 663.544H329.73V658.353H326.894V663.544H326.179L322.382 658.353H319.078L323.835 664.306L318.843 671.161H322.277ZM343.044 671.372C344.731 671.372 346.091 670.646 346.794 669.403H346.993V671.161H349.876V662.407C349.876 659.7 348.024 658.106 344.731 658.106C341.684 658.106 339.622 659.536 339.341 661.692L339.329 661.798H342.083L342.094 661.751C342.387 660.907 343.255 660.427 344.591 660.427C346.161 660.427 346.993 661.13 346.993 662.407V663.509L343.7 663.708C340.583 663.896 338.837 665.231 338.837 667.517V667.54C338.837 669.872 340.606 671.372 343.044 671.372ZM341.719 667.399V667.376C341.719 666.321 342.481 665.724 344.11 665.618L346.993 665.431V666.462C346.993 667.985 345.692 669.134 343.934 669.134C342.645 669.134 341.719 668.489 341.719 667.399ZM356.018 665.888H358.736V665.208C358.736 664.036 359.17 663.427 360.705 662.536C362.299 661.587 363.189 660.333 363.189 658.552V658.528C363.189 655.962 361.045 654.11 357.834 654.11C354.354 654.11 352.443 656.126 352.361 658.868V658.892L355.092 658.88L355.115 658.868C355.197 657.427 356.17 656.501 357.682 656.501C359.158 656.501 360.143 657.403 360.143 658.634V658.657C360.143 659.806 359.65 660.438 358.197 661.317C356.58 662.267 355.9 663.321 356.006 665.056L356.018 665.888ZM357.506 671.454C358.701 671.454 359.451 670.728 359.451 669.614C359.451 668.489 358.701 667.763 357.506 667.763C356.334 667.763 355.561 668.489 355.561 669.614C355.561 670.728 356.334 671.454 357.506 671.454ZM39.1582 700.161V683.251H25.0137V700.161H28.0371V685.794H36.1348V700.161H39.1582ZM48.5227 700.419C52.3548 700.419 54.6868 697.911 54.6868 693.763V693.739C54.6868 689.614 52.343 687.106 48.5227 687.106C44.7141 687.106 42.3587 689.626 42.3587 693.739V693.763C42.3587 697.911 44.679 700.419 48.5227 700.419ZM48.5227 698.052C46.4954 698.052 45.3352 696.47 45.3352 693.774V693.751C45.3352 691.056 46.4954 689.462 48.5227 689.462C50.5384 689.462 51.6985 691.056 51.6985 693.751V693.774C51.6985 696.47 50.5501 698.052 48.5227 698.052ZM66.5943 687.353H55.7896V689.614H59.7271V700.161H62.6451V689.614H66.5943V687.353ZM69.0799 704.415H71.9979V698.122H72.1971C72.8651 699.505 74.3299 700.372 76.0877 700.372C79.3338 700.372 81.3495 697.853 81.3495 693.774V693.751C81.3495 689.696 79.2987 687.142 76.0877 687.142C74.2948 687.142 72.9002 687.962 72.1971 689.356H71.9979V687.353H69.0799V704.415ZM75.1737 697.911C73.1932 697.911 71.9627 696.329 71.9627 693.763V693.739C71.9627 691.173 73.1932 689.603 75.1737 689.603C77.1659 689.603 78.3729 691.173 78.3729 693.751V693.774C78.3729 696.341 77.1659 697.911 75.1737 697.911ZM89.7765 700.419C93.6085 700.419 95.9405 697.911 95.9405 693.763V693.739C95.9405 689.614 93.5968 687.106 89.7765 687.106C85.9679 687.106 83.6124 689.626 83.6124 693.739V693.763C83.6124 697.911 85.9327 700.419 89.7765 700.419ZM89.7765 698.052C87.7491 698.052 86.589 696.47 86.589 693.774V693.751C86.589 691.056 87.7491 689.462 89.7765 689.462C91.7921 689.462 92.9523 691.056 92.9523 693.751V693.774C92.9523 696.47 91.8038 698.052 89.7765 698.052ZM107.45 689.614V687.353H98.8129V700.161H101.731V689.614H107.45ZM113.287 700.372C114.974 700.372 116.334 699.646 117.037 698.403H117.236V700.161H120.119V691.407C120.119 688.7 118.267 687.106 114.974 687.106C111.927 687.106 109.865 688.536 109.584 690.692L109.572 690.798H112.326L112.338 690.751C112.631 689.907 113.498 689.427 114.834 689.427C116.404 689.427 117.236 690.13 117.236 691.407V692.509L113.943 692.708C110.826 692.896 109.08 694.231 109.08 696.517V696.54C109.08 698.872 110.849 700.372 113.287 700.372ZM111.963 696.399V696.376C111.963 695.321 112.724 694.724 114.353 694.618L117.236 694.431V695.462C117.236 696.985 115.935 698.134 114.177 698.134C112.888 698.134 111.963 697.489 111.963 696.399ZM129.272 685.606C131.851 685.606 133.573 683.931 133.573 681.61H131.276C131.253 682.864 130.503 683.907 129.272 683.907C128.042 683.907 127.28 682.864 127.257 681.61H124.972C124.972 683.931 126.683 685.606 129.272 685.606ZM123.565 700.161H126.448L131.839 691.536H132.085V700.161H134.968V687.353H132.085L126.683 695.931H126.448V687.353H123.565V700.161ZM150.099 700.419C153.345 700.419 155.232 698.673 155.654 696.048L155.677 695.954L152.923 695.966L152.9 696.013C152.537 697.36 151.611 698.052 150.099 698.052C148.119 698.052 146.935 696.458 146.935 693.739V693.716C146.935 691.032 148.107 689.462 150.099 689.462C151.693 689.462 152.642 690.353 152.912 691.595L152.923 691.63H155.677V691.583C155.349 688.935 153.38 687.106 150.087 687.106C146.232 687.106 143.97 689.579 143.97 693.716V693.739C143.97 697.923 146.244 700.419 150.099 700.419ZM163.846 700.419C167.327 700.419 169.038 698.415 169.448 696.763L169.483 696.657H166.706L166.671 696.739C166.389 697.325 165.487 698.122 163.905 698.122C161.925 698.122 160.682 696.786 160.647 694.489H169.6V693.528C169.6 689.661 167.35 687.106 163.706 687.106C160.061 687.106 157.729 689.743 157.729 693.774V693.786C157.729 697.864 160.038 700.419 163.846 700.419ZM163.741 689.392C165.37 689.392 166.554 690.435 166.753 692.532H160.671C160.893 690.493 162.112 689.392 163.741 689.392ZM178.121 700.431C181.941 700.431 184.297 697.853 184.297 693.786V693.763C184.297 690.013 182.094 687.599 178.672 687.599C176.691 687.599 175.203 688.442 174.371 689.978H174.16L174.195 689.743C174.629 686.544 175.918 685.231 178.813 685.126L180.277 685.067C181.649 685.009 182.984 684.751 183.465 684.435V682.079C182.445 682.442 181.156 682.63 180.113 682.665L178.602 682.724C173.914 682.911 171.875 685.946 171.875 692.614V692.638C171.875 697.688 174.043 700.431 178.121 700.431ZM178.086 698.063C176.024 698.063 174.84 696.481 174.84 693.845V693.821C174.84 691.325 176.035 689.884 178.086 689.884C180.137 689.884 181.32 691.325 181.32 693.821V693.845C181.32 696.47 180.137 698.063 178.086 698.063ZM194.048 700.161H196.919V687.353H191.634C188.646 687.353 186.677 689.028 186.677 691.7V691.724C186.677 693.481 187.744 694.853 189.49 695.368L186.056 700.161H189.384L192.384 695.849H194.048V700.161ZM191.857 693.704C190.462 693.704 189.595 692.86 189.595 691.712V691.688C189.595 690.411 190.451 689.591 191.857 689.591H194.048V693.704H191.857Z" fill="white"/>
<path d="M360.635 46.7463L364.935 42.4563C365.123 42.268 365.229 42.0126 365.229 41.7463C365.229 41.48 365.123 41.2246 364.935 41.0363C364.746 40.848 364.491 40.7422 364.225 40.7422C363.958 40.7422 363.703 40.848 363.515 41.0363L359.225 45.3363L354.935 41.0363C354.746 40.848 354.491 40.7422 354.225 40.7422C353.958 40.7422 353.703 40.848 353.515 41.0363C353.326 41.2246 353.22 41.48 353.22 41.7463C353.22 42.0126 353.326 42.268 353.515 42.4563L357.815 46.7463L353.515 51.0363C353.421 51.1292 353.346 51.2398 353.296 51.3617C353.245 51.4836 353.219 51.6143 353.219 51.7463C353.219 51.8783 353.245 52.009 353.296 52.1309C353.346 52.2527 353.421 52.3633 353.515 52.4563C353.608 52.55 353.718 52.6244 353.84 52.6752C353.962 52.7259 354.093 52.7521 354.225 52.7521C354.357 52.7521 354.487 52.7259 354.609 52.6752C354.731 52.6244 354.842 52.55 354.935 52.4563L359.225 48.1563L363.515 52.4563C363.608 52.55 363.718 52.6244 363.84 52.6752C363.962 52.7259 364.093 52.7521 364.225 52.7521C364.357 52.7521 364.487 52.7259 364.609 52.6752C364.731 52.6244 364.842 52.55 364.935 52.4563C365.028 52.3633 365.103 52.2527 365.153 52.1309C365.204 52.009 365.23 51.8783 365.23 51.7463C365.23 51.6143 365.204 51.4836 365.153 51.3617C365.103 51.2398 365.028 51.1292 364.935 51.0363L360.635 46.7463Z" fill="white"/>
<rect x="23.6035" y="17.7461" width="67.3981" height="2" rx="1" fill="white"/>
<rect x="92.9336" y="17.7461" width="67.3981" height="2" rx="1" fill="white"/>
<rect x="162.262" y="17.7461" width="67.3981" height="2" rx="1" fill="white"/>
<rect x="231.592" y="17.7461" width="67.3981" height="2" rx="1" fill="white"/>
<rect x="300.921" y="17.7461" width="67.3981" height="2" rx="1" fill="#D9D9D9" fill-opacity="0.2"/>
<path d="M295.048 114.813L310.972 105.525L301.899 121.573L301.475 122.322L302.337 122.319L320.772 122.237L304.89 131.598L304.148 132.035L304.896 132.463L320.902 141.609L302.468 141.776L301.606 141.784L302.04 142.528L311.329 158.452L295.281 149.379L294.531 148.955L294.535 149.816L294.617 168.251L285.256 152.37L284.818 151.628L284.391 152.376L275.244 168.382L275.078 149.948L275.07 149.086L274.326 149.52L258.402 158.809L267.475 142.761L267.899 142.011L267.037 142.015L248.602 142.097L264.484 132.735L265.226 132.298L264.478 131.871L248.472 122.724L266.906 122.558L267.767 122.55L267.333 121.806L258.045 105.881L274.093 114.954L274.843 115.378L274.839 114.517L274.757 96.0819L284.118 111.963L284.556 112.706L284.983 111.958L294.13 95.9513L294.296 114.386L294.304 115.247L295.048 114.813Z" fill="#33FF00" stroke="#2C2C2C"/>
<path d="M129.714 220.333L159.081 203.203L142.349 232.798L141.925 233.548L142.786 233.545L176.784 233.393L147.496 250.658L146.754 251.095L147.501 251.522L177.02 268.39L143.023 268.697L142.162 268.705L142.596 269.449L159.726 298.817L130.13 282.084L129.38 281.66L129.384 282.522L129.536 316.519L112.271 287.231L111.834 286.489L111.406 287.237L94.5386 316.755L94.2315 282.759L94.2237 281.897L93.4796 282.331L64.1122 299.461L80.8447 269.866L81.2686 269.116L80.4072 269.12L46.4094 269.271L75.6979 252.007L76.44 251.569L75.6921 251.142L46.1734 234.274L80.1702 233.967L81.0316 233.959L80.5975 233.215L63.4675 203.848L93.0632 220.58L93.8131 221.004L93.8093 220.142L93.6579 186.145L110.922 215.433L111.36 216.175L111.787 215.427L128.655 185.909L128.962 219.905L128.97 220.767L129.714 220.333Z" fill="#33FF00" stroke="#2C2C2C"/>
<path d="M310.888 358L326.131 349.109L317.446 364.47L317.022 365.22L317.884 365.216L335.529 365.137L320.328 374.098L319.586 374.535L320.334 374.963L335.655 383.718L318.01 383.877L317.148 383.885L317.582 384.629L326.473 399.871L311.112 391.187L310.362 390.763L310.366 391.624L310.445 409.27L301.484 394.068L301.047 393.326L300.619 394.074L291.864 409.395L291.705 391.75L291.697 390.889L290.953 391.323L275.711 400.214L284.395 384.853L284.819 384.103L283.958 384.107L266.312 384.185L281.514 375.225L282.256 374.787L281.508 374.36L266.187 365.605L283.832 365.445L284.693 365.438L284.259 364.694L275.369 349.451L290.729 358.136L291.479 358.56L291.475 357.698L291.397 340.053L300.358 355.254L300.795 355.996L301.222 355.248L309.977 339.927L310.137 357.572L310.144 358.434L310.888 358Z" fill="#33FF00" stroke="#2C2C2C"/>
<path d="M94.02 441.573L102.816 436.442L97.8045 445.306L97.3806 446.056L98.242 446.053L108.425 446.007L99.6526 451.178L98.9105 451.616L99.6584 452.043L108.5 457.096L98.3171 457.188L97.4557 457.195L97.8897 457.94L103.021 466.736L94.1559 461.724L93.406 461.3L93.4098 462.162L93.4551 472.345L88.284 463.572L87.8465 462.83L87.4191 463.578L82.3667 472.42L82.2747 462.237L82.2669 461.375L81.5228 461.809L72.7264 466.94L77.7383 458.075L78.1623 457.326L77.3008 457.329L67.1174 457.375L75.8902 452.204L76.6323 451.766L75.8844 451.339L67.0427 446.286L77.2257 446.194L78.0871 446.186L77.6531 445.442L72.5222 436.646L81.3869 441.658L82.1368 442.082L82.133 441.22L82.0877 431.037L87.2588 439.81L87.6963 440.552L88.1237 439.804L93.1761 430.962L93.2681 441.145L93.2759 442.007L94.02 441.573Z" fill="#33FF00" stroke="#2C2C2C"/>
</svg>
