<svg width="390" height="731" viewBox="0 0 390 731" fill="none" xmlns="http://www.w3.org/2000/svg">
<rect y="0.161133" width="390" height="730" rx="12" fill="#2C2C2C"/>
<path d="M25.1641 574.161H56.8223V548.796H50.3887V568.976H44.2188V548.796H37.7852V568.976H31.6152V548.796H25.1641V574.161ZM67.6341 574.46C70.1302 574.46 72.222 573.405 73.0833 571.735H73.4173V574.161H79.5345V560.819C79.5345 556.601 76.4583 554.14 71.0618 554.14C65.7708 554.14 62.3958 556.513 62.0442 560.116L62.0266 560.327H67.6692L67.7044 560.239C68.0735 559.255 69.0755 558.71 70.7102 558.71C72.4329 558.71 73.4173 559.501 73.4173 560.819V562.349L69.1458 562.595C64.1009 562.911 61.3235 564.968 61.3235 568.519V568.554C61.3235 572.122 63.8899 574.46 67.6341 574.46ZM67.3177 568.114V568.079C67.3177 566.919 68.2845 566.181 70.1302 566.058L73.4173 565.847V567.13C73.4173 568.817 71.888 570.118 69.9192 570.118C68.3548 570.118 67.3177 569.345 67.3177 568.114ZM98.4322 559.167V554.597H84.317V574.161H90.5572V559.167H98.4322ZM121.04 574.847C126.999 574.847 131.095 571.173 131.095 565.706V565.671C131.095 560.872 127.685 557.427 122.974 557.427C120.478 557.427 118.526 558.569 117.56 560.274H117.226L117.735 553.753H129.53V548.796H112.743L111.653 564.054H117.155C117.437 563.544 117.841 563.052 118.351 562.683C119.071 562.138 119.968 561.839 121.04 561.839C123.396 561.839 125.101 563.456 125.101 565.794V565.829C125.101 568.185 123.431 569.837 121.04 569.837C118.948 569.837 117.437 568.571 117.032 567.007L117.015 566.901H111.249L111.267 567.183C111.53 571.507 115.239 574.847 121.04 574.847ZM139.516 562.472C141.625 562.472 143.049 561.013 143.049 559.026C143.049 557.04 141.625 555.563 139.516 555.563C137.424 555.563 136 557.04 136 559.026C136 561.013 137.424 562.472 139.516 562.472ZM139.516 574.741C141.625 574.741 143.049 573.265 143.049 571.278C143.049 569.292 141.625 567.833 139.516 567.833C137.424 567.833 136 569.292 136 571.278C136 573.265 137.424 574.741 139.516 574.741Z" fill="#33FF00"/>
<path d="M27.2266 613.161V598.794H34.7852V596.251H24.2031V613.161H27.2266ZM39.2161 607.618L39.5794 602.614H43.3177V613.161H46.2356V600.353H37.0481L36.6028 607.384C36.4856 609.224 36.0755 610.712 34.9036 610.712C34.5755 610.712 34.2591 610.665 34.1302 610.63V613.138C34.3177 613.196 34.7044 613.278 35.2317 613.278C37.8333 613.278 38.97 611.31 39.2161 607.618ZM51.1236 617.661C53.9595 617.661 55.4244 616.642 56.5259 613.431L61.1197 600.353H58.0494L55.0728 610.36H54.8502L51.8619 600.353H48.6744L53.2564 613.173L53.1041 613.759C52.7877 614.919 52.0728 615.411 50.8775 615.411C50.5728 615.411 50.2447 615.399 50.0103 615.376V617.614C50.3619 617.649 50.772 617.661 51.1236 617.661ZM69.1366 613.431C72.9569 613.431 75.3123 610.853 75.3123 606.786V606.763C75.3123 603.013 73.1092 600.599 69.6873 600.599C67.7069 600.599 66.2186 601.442 65.3866 602.978H65.1756L65.2108 602.743C65.6444 599.544 66.9334 598.231 69.828 598.126L71.2928 598.067C72.6639 598.009 73.9998 597.751 74.4803 597.435V595.079C73.4608 595.442 72.1717 595.63 71.1287 595.665L69.617 595.724C64.9295 595.911 62.8905 598.946 62.8905 605.614V605.638C62.8905 610.688 65.0584 613.431 69.1366 613.431ZM69.1014 611.063C67.0389 611.063 65.8553 609.481 65.8553 606.845V606.821C65.8553 604.325 67.0506 602.884 69.1014 602.884C71.1522 602.884 72.3358 604.325 72.3358 606.821V606.845C72.3358 609.47 71.1522 611.063 69.1014 611.063ZM83.7628 613.419C87.5948 613.419 89.9269 610.911 89.9269 606.763V606.739C89.9269 602.614 87.5831 600.106 83.7628 600.106C79.9542 600.106 77.5988 602.626 77.5988 606.739V606.763C77.5988 610.911 79.9191 613.419 83.7628 613.419ZM83.7628 611.052C81.7355 611.052 80.5753 609.47 80.5753 606.774V606.751C80.5753 604.056 81.7355 602.462 83.7628 602.462C85.7784 602.462 86.9386 604.056 86.9386 606.751V606.774C86.9386 609.47 85.7902 611.052 83.7628 611.052ZM96.3734 607.63L100.639 613.161H104.166L98.7523 606.282L103.92 600.353H100.569L96.35 605.497H95.7172V600.353H92.7992V613.161H95.7172V607.63H96.3734ZM111.445 613.419C115.277 613.419 117.609 610.911 117.609 606.763V606.739C117.609 602.614 115.265 600.106 111.445 600.106C107.636 600.106 105.281 602.626 105.281 606.739V606.763C105.281 610.911 107.601 613.419 111.445 613.419ZM111.445 611.052C109.418 611.052 108.257 609.47 108.257 606.774V606.751C108.257 604.056 109.418 602.462 111.445 602.462C113.461 602.462 114.621 604.056 114.621 606.751V606.774C114.621 609.47 113.472 611.052 111.445 611.052ZM126.6 613.161H132.74C135.588 613.161 137.323 611.696 137.323 609.517V609.493C137.323 607.946 136.209 606.774 134.522 606.587V606.388C135.823 606.165 136.748 604.981 136.748 603.646V603.622C136.748 601.653 135.237 600.353 132.658 600.353H126.6V613.161ZM129.483 605.673V602.368H131.967C133.256 602.368 133.877 603.024 133.877 603.997V604.021C133.877 605.087 133.174 605.673 131.733 605.673H129.483ZM129.483 611.146V607.63H131.944C133.537 607.63 134.334 608.204 134.334 609.364V609.388C134.334 610.489 133.619 611.146 132.213 611.146H129.483ZM141.425 616.501V613.161H150.613V616.501H153.285V610.876H151.316V600.353H141.671L141.226 607.079C141.109 608.802 140.71 610.313 139.761 610.876H138.753V616.501H141.425ZM148.386 610.876H142.878V610.677C143.441 609.868 143.734 608.638 143.839 607.231L144.168 602.638H148.386V610.876ZM161.02 613.419C164.852 613.419 167.184 610.911 167.184 606.763V606.739C167.184 602.614 164.841 600.106 161.02 600.106C157.212 600.106 154.856 602.626 154.856 606.739V606.763C154.856 610.911 157.177 613.419 161.02 613.419ZM161.02 611.052C158.993 611.052 157.833 609.47 157.833 606.774V606.751C157.833 604.056 158.993 602.462 161.02 602.462C163.036 602.462 164.196 604.056 164.196 606.751V606.774C164.196 609.47 163.048 611.052 161.02 611.052ZM168.58 613.161H171.721L174.334 608.708H174.533L177.158 613.161H180.44L176.256 606.681L180.393 600.353H177.193L174.662 604.794H174.463L171.92 600.353H168.545L172.729 606.81L168.58 613.161ZM191.269 613.161H194.187V600.353H191.269V605.427H185.867V600.353H182.949V613.161H185.867V607.688H191.269V613.161ZM197.692 613.161H200.575L205.965 604.536H206.212V613.161H209.094V600.353H206.212L200.809 608.931H200.575V600.353H197.692V613.161ZM23.8867 642.161H26.7695L32.1602 633.536H32.4062V642.161H35.2891V629.353H32.4062L27.0039 637.931H26.7695V629.353H23.8867V642.161ZM44.9127 642.161H51.0533C53.9009 642.161 55.6353 640.696 55.6353 638.517V638.493C55.6353 636.946 54.522 635.774 52.8345 635.587V635.388C54.1353 635.165 55.0611 633.981 55.0611 632.646V632.622C55.0611 630.653 53.5494 629.353 50.9713 629.353H44.9127V642.161ZM47.7955 634.673V631.368H50.2798C51.5689 631.368 52.19 632.024 52.19 632.997V633.021C52.19 634.087 51.4869 634.673 50.0455 634.673H47.7955ZM47.7955 640.146V636.63H50.2564C51.8502 636.63 52.647 637.204 52.647 638.364V638.388C52.647 639.489 51.9322 640.146 50.5259 640.146H47.7955ZM58.6014 642.161H64.0506C67.0389 642.161 68.9491 640.427 68.9491 637.708V637.685C68.9491 634.966 67.0389 633.22 64.0506 633.22H61.5194V629.353H58.6014V642.161ZM71.0467 642.161H73.9647V629.353H71.0467V642.161ZM63.6756 635.47C65.0936 635.47 66.0077 636.349 66.0077 637.673V637.696C66.0077 639.009 65.1053 639.911 63.6756 639.911H61.5194V635.47H63.6756ZM78.6769 645.501V642.161H87.8644V645.501H90.5363V639.876H88.5675V629.353H78.923L78.4777 636.079C78.3605 637.802 77.962 639.313 77.0128 639.876H76.005V645.501H78.6769ZM85.6378 639.876H80.13V639.677C80.6925 638.868 80.9855 637.638 81.0909 636.231L81.4191 631.638H85.6378V639.876ZM98.2719 642.419C102.104 642.419 104.436 639.911 104.436 635.763V635.739C104.436 631.614 102.092 629.106 98.2719 629.106C94.4633 629.106 92.1078 631.626 92.1078 635.739V635.763C92.1078 639.911 94.4281 642.419 98.2719 642.419ZM98.2719 640.052C96.2445 640.052 95.0844 638.47 95.0844 635.774V635.751C95.0844 633.056 96.2445 631.462 98.2719 631.462C100.287 631.462 101.448 633.056 101.448 635.751V635.774C101.448 638.47 100.299 640.052 98.2719 640.052ZM105.832 642.161H108.972L111.586 637.708H111.785L114.41 642.161H117.691L113.507 635.681L117.644 629.353H114.445L111.914 633.794H111.715L109.172 629.353H105.797L109.98 635.81L105.832 642.161ZM128.52 642.161H131.438V629.353H128.52V634.427H123.118V629.353H120.2V642.161H123.118V636.688H128.52V642.161ZM134.944 642.161H137.826L143.217 633.536H143.463V642.161H146.346V629.353H143.463L138.061 637.931H137.826V629.353H134.944V642.161ZM151.914 642.396C152.992 642.396 153.777 641.587 153.777 640.544C153.777 639.501 152.992 638.692 151.914 638.692C150.847 638.692 150.05 639.501 150.05 640.544C150.05 641.587 150.847 642.396 151.914 642.396ZM178.049 642.161V625.251H163.904V642.161H166.928V627.794H175.025V642.161H178.049ZM187.413 642.419C191.245 642.419 193.577 639.911 193.577 635.763V635.739C193.577 631.614 191.234 629.106 187.413 629.106C183.605 629.106 181.249 631.626 181.249 635.739V635.763C181.249 639.911 183.57 642.419 187.413 642.419ZM187.413 640.052C185.386 640.052 184.226 638.47 184.226 635.774V635.751C184.226 633.056 185.386 631.462 187.413 631.462C189.429 631.462 190.589 633.056 190.589 635.751V635.774C190.589 638.47 189.441 640.052 187.413 640.052ZM196.45 642.161H202.59C205.438 642.161 207.173 640.696 207.173 638.517V638.493C207.173 636.946 206.059 635.774 204.372 635.587V635.388C205.673 635.165 206.598 633.981 206.598 632.646V632.622C206.598 630.653 205.087 629.353 202.508 629.353H196.45V642.161ZM199.333 634.673V631.368H201.817C203.106 631.368 203.727 632.024 203.727 632.997V633.021C203.727 634.087 203.024 634.673 201.583 634.673H199.333ZM199.333 640.146V636.63H201.794C203.387 636.63 204.184 637.204 204.184 638.364V638.388C204.184 639.489 203.469 640.146 202.063 640.146H199.333ZM219.174 629.353H208.369V631.614H212.307V642.161H215.225V631.614H219.174V629.353ZM226.792 642.419C230.624 642.419 232.956 639.911 232.956 635.763V635.739C232.956 631.614 230.613 629.106 226.792 629.106C222.984 629.106 220.628 631.626 220.628 635.739V635.763C220.628 639.911 222.948 642.419 226.792 642.419ZM226.792 640.052C224.765 640.052 223.605 638.47 223.605 635.774V635.751C223.605 633.056 224.765 631.462 226.792 631.462C228.808 631.462 229.968 633.056 229.968 635.751V635.774C229.968 638.47 228.82 640.052 226.792 640.052ZM235.84 646.415H238.758V640.122H238.958C239.625 641.505 241.09 642.372 242.848 642.372C246.094 642.372 248.11 639.853 248.11 635.774V635.751C248.11 631.696 246.059 629.142 242.848 629.142C241.055 629.142 239.661 629.962 238.958 631.356H238.758V629.353H235.84V646.415ZM241.934 639.911C239.954 639.911 238.723 638.329 238.723 635.763V635.739C238.723 633.173 239.954 631.603 241.934 631.603C243.926 631.603 245.133 633.173 245.133 635.751V635.774C245.133 638.341 243.926 639.911 241.934 639.911ZM250.994 642.161H253.877L259.267 633.536H259.513V642.161H262.396V629.353H259.513L254.111 637.931H253.877V629.353H250.994V642.161ZM32.207 671.161H35.125V658.353H32.207V663.427H26.8047V658.353H23.8867V671.161H26.8047V665.688H32.207V671.161ZM44.1263 671.419C47.6067 671.419 49.3177 669.415 49.7278 667.763L49.763 667.657H46.9856L46.9505 667.739C46.6692 668.325 45.7669 669.122 44.1848 669.122C42.2044 669.122 40.9622 667.786 40.927 665.489H49.8802V664.528C49.8802 660.661 47.6302 658.106 43.9856 658.106C40.3411 658.106 38.0091 660.743 38.0091 664.774V664.786C38.0091 668.864 40.3177 671.419 44.1263 671.419ZM44.0208 660.392C45.6497 660.392 46.8333 661.435 47.0325 663.532H40.9505C41.1731 661.493 42.3919 660.392 44.0208 660.392ZM58.2838 671.419C62.1158 671.419 64.4478 668.911 64.4478 664.763V664.739C64.4478 660.614 62.1041 658.106 58.2838 658.106C54.4752 658.106 52.1197 660.626 52.1197 664.739V664.763C52.1197 668.911 54.44 671.419 58.2838 671.419ZM58.2838 669.052C56.2564 669.052 55.0963 667.47 55.0963 664.774V664.751C55.0963 662.056 56.2564 660.462 58.2838 660.462C60.2994 660.462 61.4595 662.056 61.4595 664.751V664.774C61.4595 667.47 60.3111 669.052 58.2838 669.052ZM72.9803 671.431C76.8006 671.431 79.1561 668.853 79.1561 664.786V664.763C79.1561 661.013 76.953 658.599 73.5311 658.599C71.5506 658.599 70.0623 659.442 69.2303 660.978H69.0194L69.0545 660.743C69.4881 657.544 70.7772 656.231 73.6717 656.126L75.1366 656.067C76.5077 656.009 77.8436 655.751 78.3241 655.435V653.079C77.3045 653.442 76.0155 653.63 74.9725 653.665L73.4608 653.724C68.7733 653.911 66.7342 656.946 66.7342 663.614V663.638C66.7342 668.688 68.9022 671.431 72.9803 671.431ZM72.9452 669.063C70.8827 669.063 69.6991 667.481 69.6991 664.845V664.821C69.6991 662.325 70.8944 660.884 72.9452 660.884C74.9959 660.884 76.1795 662.325 76.1795 664.821V664.845C76.1795 667.47 74.9959 669.063 72.9452 669.063ZM80.587 671.161H83.7277L86.3409 666.708H86.5402L89.1652 671.161H92.4464L88.2628 664.681L92.3995 658.353H89.2003L86.6691 662.794H86.4698L83.9269 658.353H80.5519L84.7355 664.81L80.587 671.161ZM99.9828 671.419C103.815 671.419 106.147 668.911 106.147 664.763V664.739C106.147 660.614 103.803 658.106 99.9828 658.106C96.1742 658.106 93.8187 660.626 93.8187 664.739V664.763C93.8187 668.911 96.1391 671.419 99.9828 671.419ZM99.9828 669.052C97.9555 669.052 96.7953 667.47 96.7953 664.774V664.751C96.7953 662.056 97.9555 660.462 99.9828 660.462C101.998 660.462 103.159 662.056 103.159 664.751V664.774C103.159 667.47 102.01 669.052 99.9828 669.052ZM110.062 674.501V671.161H119.25V674.501H121.922V668.876H119.953V658.353H110.308L109.863 665.079C109.746 666.802 109.347 668.313 108.398 668.876H107.39V674.501H110.062ZM117.023 668.876H111.515V668.677C112.078 667.868 112.371 666.638 112.476 665.231L112.804 660.638H117.023V668.876ZM124.114 671.161H126.997L132.388 662.536H132.634V671.161H135.517V658.353H132.634L127.231 666.931H126.997V658.353H124.114V671.161ZM141.811 671.161V662.419H142.033L145.549 670.587H147.635L151.162 662.419H151.385V671.161H154.174V658.353H150.53L146.733 667.271H146.522L142.737 658.353H139.022V671.161H141.811ZM163.222 671.419C167.054 671.419 169.386 668.911 169.386 664.763V664.739C169.386 660.614 167.042 658.106 163.222 658.106C159.414 658.106 157.058 660.626 157.058 664.739V664.763C157.058 668.911 159.378 671.419 163.222 671.419ZM163.222 669.052C161.195 669.052 160.035 667.47 160.035 664.774V664.751C160.035 662.056 161.195 660.462 163.222 660.462C165.238 660.462 166.398 662.056 166.398 664.751V664.774C166.398 667.47 165.25 669.052 163.222 669.052ZM177.755 671.419C181.235 671.419 182.946 669.415 183.356 667.763L183.391 667.657H180.614L180.579 667.739C180.298 668.325 179.395 669.122 177.813 669.122C175.833 669.122 174.591 667.786 174.555 665.489H183.509V664.528C183.509 660.661 181.259 658.106 177.614 658.106C173.97 658.106 171.637 660.743 171.637 664.774V664.786C171.637 668.864 173.946 671.419 177.755 671.419ZM177.649 660.392C179.278 660.392 180.462 661.435 180.661 663.532H174.579C174.802 661.493 176.02 660.392 177.649 660.392ZM196.062 665.63L200.327 671.161H203.855L198.441 664.282L203.609 658.353H200.257L196.038 663.497H195.406V658.353H192.488V671.161H195.406V665.63H196.062ZM211.133 671.419C214.965 671.419 217.298 668.911 217.298 664.763V664.739C217.298 660.614 214.954 658.106 211.133 658.106C207.325 658.106 204.969 660.626 204.969 664.739V664.763C204.969 668.911 207.29 671.419 211.133 671.419ZM211.133 669.052C209.106 669.052 207.946 667.47 207.946 664.774V664.751C207.946 662.056 209.106 660.462 211.133 660.462C213.149 660.462 214.309 662.056 214.309 664.751V664.774C214.309 667.47 213.161 669.052 211.133 669.052ZM223.803 665.618L224.166 660.614H227.904V671.161H230.822V658.353H221.635L221.189 665.384C221.072 667.224 220.662 668.712 219.49 668.712C219.162 668.712 218.846 668.665 218.717 668.63V671.138C218.904 671.196 219.291 671.278 219.818 671.278C222.42 671.278 223.557 669.31 223.803 665.618ZM234.327 671.161H237.21L242.601 662.536H242.847V671.161H245.73V658.353H242.847L237.445 666.931H237.21V658.353H234.327V671.161ZM259.864 671.161V658.353H256.946V663.591C256.477 664.071 255.575 664.411 254.297 664.411C252.704 664.411 251.895 663.521 251.895 661.938V658.353H248.977V662.185C248.977 665.032 250.7 666.872 253.747 666.872C255.059 666.872 256.055 666.556 256.735 666.04H256.946V671.161H259.864ZM268.865 671.419C272.345 671.419 274.056 669.415 274.467 667.763L274.502 667.657H271.724L271.689 667.739C271.408 668.325 270.506 669.122 268.924 669.122C266.943 669.122 265.701 667.786 265.666 665.489H274.619V664.528C274.619 660.661 272.369 658.106 268.724 658.106C265.08 658.106 262.748 660.743 262.748 664.774V664.786C262.748 668.864 265.056 671.419 268.865 671.419ZM268.76 660.392C270.388 660.392 271.572 661.435 271.771 663.532H265.689C265.912 661.493 267.131 660.392 268.76 660.392ZM282.987 671.419C286.233 671.419 288.12 669.673 288.542 667.048L288.565 666.954L285.812 666.966L285.788 667.013C285.425 668.36 284.499 669.052 282.987 669.052C281.007 669.052 279.823 667.458 279.823 664.739V664.716C279.823 662.032 280.995 660.462 282.987 660.462C284.581 660.462 285.53 661.353 285.8 662.595L285.812 662.63H288.565V662.583C288.237 659.935 286.269 658.106 282.976 658.106C279.12 658.106 276.858 660.579 276.858 664.716V664.739C276.858 668.923 279.132 671.419 282.987 671.419ZM300.555 658.353H289.75V660.614H293.688V671.161H296.606V660.614H300.555V658.353ZM303.029 671.161H309.17C312.017 671.161 313.752 669.696 313.752 667.517V667.493C313.752 665.946 312.638 664.774 310.951 664.587V664.388C312.252 664.165 313.177 662.981 313.177 661.646V661.622C313.177 659.653 311.666 658.353 309.087 658.353H303.029V671.161ZM305.912 663.673V660.368H308.396C309.685 660.368 310.306 661.024 310.306 661.997V662.021C310.306 663.087 309.603 663.673 308.162 663.673H305.912ZM305.912 669.146V665.63H308.373C309.966 665.63 310.763 666.204 310.763 667.364V667.388C310.763 668.489 310.048 669.146 308.642 669.146H305.912ZM322.097 671.419C325.929 671.419 328.261 668.911 328.261 664.763V664.739C328.261 660.614 325.917 658.106 322.097 658.106C318.288 658.106 315.932 660.626 315.932 664.739V664.763C315.932 668.911 318.253 671.419 322.097 671.419ZM322.097 669.052C320.069 669.052 318.909 667.47 318.909 664.774V664.751C318.909 662.056 320.069 660.462 322.097 660.462C324.112 660.462 325.272 662.056 325.272 664.751V664.774C325.272 667.47 324.124 669.052 322.097 669.052ZM23.8984 704.415H26.8164V698.122H27.0156C27.6836 699.505 29.1484 700.372 30.9062 700.372C34.1523 700.372 36.168 697.853 36.168 693.774V693.751C36.168 689.696 34.1172 687.142 30.9062 687.142C29.1133 687.142 27.7188 687.962 27.0156 689.356H26.8164V687.353H23.8984V704.415ZM29.9922 697.911C28.0117 697.911 26.7812 696.329 26.7812 693.763V693.739C26.7812 691.173 28.0117 689.603 29.9922 689.603C31.9844 689.603 33.1914 691.173 33.1914 693.751V693.774C33.1914 696.341 31.9844 697.911 29.9922 697.911ZM42.5559 700.372C44.2434 700.372 45.6028 699.646 46.3059 698.403H46.5052V700.161H49.388V691.407C49.388 688.7 47.5364 687.106 44.2434 687.106C41.1966 687.106 39.1341 688.536 38.8528 690.692L38.8411 690.798H41.595L41.6067 690.751C41.8997 689.907 42.7669 689.427 44.1028 689.427C45.6731 689.427 46.5052 690.13 46.5052 691.407V692.509L43.2122 692.708C40.095 692.896 38.3489 694.231 38.3489 696.517V696.54C38.3489 698.872 40.1184 700.372 42.5559 700.372ZM41.2317 696.399V696.376C41.2317 695.321 41.9934 694.724 43.6223 694.618L46.5052 694.431V695.462C46.5052 696.985 45.2044 698.134 43.4466 698.134C42.1575 698.134 41.2317 697.489 41.2317 696.399ZM57.6392 700.431C60.9322 700.431 63.0298 698.778 63.0298 696.399V696.376C63.0298 694.946 62.1627 693.915 60.3814 693.563V693.364C61.7642 693.048 62.6197 692.005 62.6197 690.657V690.634C62.6197 688.466 60.7447 687.095 57.7095 687.095C54.5689 687.095 52.7759 688.606 52.483 690.845L52.4713 690.938H55.2369L55.2486 690.88C55.4244 689.954 56.3033 689.356 57.6158 689.356C59.0572 689.356 59.772 690.06 59.772 690.985V691.009C59.772 692.063 59.0689 692.673 57.5806 692.673H55.7525V694.642H57.5923C59.2447 694.642 60.1353 695.216 60.1353 696.353V696.376C60.1353 697.431 59.1978 698.169 57.6041 698.169C56.233 698.169 55.2603 697.595 54.9908 696.61L54.9673 696.528H52.1314L52.1431 696.634C52.4244 699.118 54.733 700.431 57.6392 700.431Z" fill="white"/>
<path d="M359.824 46.7463L364.124 42.4563C364.312 42.268 364.418 42.0126 364.418 41.7463C364.418 41.48 364.312 41.2246 364.124 41.0363C363.936 40.848 363.68 40.7422 363.414 40.7422C363.148 40.7422 362.892 40.848 362.704 41.0363L358.414 45.3363L354.124 41.0363C353.936 40.848 353.68 40.7422 353.414 40.7422C353.148 40.7422 352.892 40.848 352.704 41.0363C352.516 41.2246 352.41 41.48 352.41 41.7463C352.41 42.0126 352.516 42.268 352.704 42.4563L357.004 46.7463L352.704 51.0363C352.61 51.1292 352.536 51.2398 352.485 51.3617C352.434 51.4836 352.408 51.6143 352.408 51.7463C352.408 51.8783 352.434 52.009 352.485 52.1309C352.536 52.2527 352.61 52.3633 352.704 52.4563C352.797 52.55 352.908 52.6244 353.029 52.6752C353.151 52.7259 353.282 52.7521 353.414 52.7521C353.546 52.7521 353.677 52.7259 353.799 52.6752C353.92 52.6244 354.031 52.55 354.124 52.4563L358.414 48.1563L362.704 52.4563C362.797 52.55 362.908 52.6244 363.029 52.6752C363.151 52.7259 363.282 52.7521 363.414 52.7521C363.546 52.7521 363.677 52.7259 363.799 52.6752C363.92 52.6244 364.031 52.55 364.124 52.4563C364.218 52.3633 364.292 52.2527 364.343 52.1309C364.394 52.009 364.42 51.8783 364.42 51.7463C364.42 51.6143 364.394 51.4836 364.343 51.3617C364.292 51.2398 364.218 51.1292 364.124 51.0363L359.824 46.7463Z" fill="white"/>
<rect x="22.1895" y="17.7461" width="67.3981" height="2" rx="1" fill="white"/>
<rect x="91.5195" y="17.7461" width="67.3981" height="2" rx="1" fill="white"/>
<rect x="160.848" y="17.7461" width="67.3981" height="2" rx="1" fill="white"/>
<rect x="230.178" y="17.7461" width="67.3981" height="2" rx="1" fill="white"/>
<rect x="299.507" y="17.7461" width="67.3981" height="2" rx="1" fill="white"/>
<path d="M294.634 114.813L310.558 105.525L301.485 121.573L301.061 122.322L301.923 122.319L320.358 122.237L304.476 131.598L303.734 132.035L304.482 132.463L320.488 141.609L302.054 141.776L301.192 141.784L301.626 142.528L310.915 158.452L294.867 149.379L294.117 148.955L294.121 149.816L294.203 168.251L284.842 152.37L284.404 151.628L283.977 152.376L274.83 168.382L274.664 149.948L274.656 149.086L273.912 149.52L257.988 158.809L267.061 142.761L267.485 142.011L266.623 142.015L248.188 142.097L264.07 132.735L264.812 132.298L264.064 131.871L248.057 122.724L266.492 122.558L267.353 122.55L266.919 121.806L257.631 105.881L273.679 114.954L274.429 115.378L274.425 114.517L274.343 96.0819L283.704 111.963L284.142 112.706L284.569 111.958L293.716 95.9513L293.882 114.386L293.89 115.247L294.634 114.813Z" fill="#33FF00" stroke="#2C2C2C"/>
<path d="M129.3 220.333L158.667 203.203L141.935 232.798L141.511 233.548L142.372 233.545L176.37 233.393L147.082 250.658L146.339 251.095L147.087 251.522L176.606 268.39L142.609 268.697L141.748 268.705L142.182 269.449L159.312 298.817L129.716 282.084L128.966 281.66L128.97 282.522L129.122 316.519L111.857 287.231L111.42 286.489L110.992 287.237L94.1245 316.755L93.8174 282.759L93.8096 281.897L93.0655 282.331L63.6982 299.461L80.4306 269.866L80.8546 269.116L79.9931 269.12L45.9953 269.271L75.2838 252.007L76.0259 251.569L75.278 251.142L45.7593 234.274L79.7561 233.967L80.6175 233.959L80.1835 233.215L63.0535 203.848L92.6491 220.58L93.399 221.004L93.3952 220.142L93.2438 186.145L110.508 215.433L110.946 216.175L111.373 215.427L128.241 185.909L128.548 219.905L128.556 220.767L129.3 220.333Z" fill="#33FF00" stroke="#2C2C2C"/>
<path d="M310.474 358L325.717 349.109L317.032 364.47L316.608 365.22L317.47 365.216L335.115 365.137L319.914 374.098L319.172 374.535L319.92 374.963L335.241 383.718L317.596 383.877L316.734 383.885L317.168 384.629L326.059 399.871L310.698 391.187L309.948 390.763L309.952 391.624L310.031 409.27L301.07 394.068L300.633 393.326L300.205 394.074L291.45 409.395L291.291 391.75L291.283 390.889L290.539 391.323L275.297 400.214L283.981 384.853L284.405 384.103L283.544 384.107L265.898 384.185L281.1 375.225L281.842 374.787L281.094 374.36L265.773 365.605L283.418 365.445L284.279 365.438L283.845 364.694L274.955 349.451L290.315 358.136L291.065 358.56L291.061 357.698L290.983 340.053L299.943 355.254L300.381 355.996L300.808 355.248L309.563 339.927L309.723 357.572L309.73 358.434L310.474 358Z" fill="#33FF00" stroke="#2C2C2C"/>
<path d="M93.606 441.573L102.402 436.442L97.3905 445.306L96.9665 446.056L97.8279 446.053L108.011 446.007L99.2385 451.178L98.4964 451.616L99.2444 452.043L108.086 457.096L97.903 457.188L97.0416 457.195L97.4756 457.94L102.607 466.736L93.7418 461.724L92.9919 461.3L92.9958 462.162L93.0411 472.345L87.8699 463.572L87.4324 462.83L87.005 463.578L81.9526 472.42L81.8606 462.237L81.8529 461.375L81.1087 461.809L72.3124 466.94L77.3242 458.075L77.7482 457.326L76.8867 457.329L66.7034 457.375L75.4762 452.204L76.2183 451.766L75.4703 451.339L66.6286 446.286L76.8117 446.194L77.6731 446.186L77.239 445.442L72.1081 436.646L80.9729 441.658L81.7228 442.082L81.7189 441.22L81.6736 431.037L86.8448 439.81L87.2822 440.552L87.7096 439.804L92.7621 430.962L92.854 441.145L92.8618 442.007L93.606 441.573Z" fill="#33FF00" stroke="#2C2C2C"/>
<path d="M258.679 527.829L263.145 525.224L260.6 529.725L260.176 530.475L261.038 530.471L266.208 530.448L261.754 533.073L261.012 533.511L261.76 533.938L266.249 536.504L261.079 536.55L260.217 536.558L260.652 537.302L263.257 541.768L258.756 539.224L258.006 538.8L258.01 539.661L258.033 544.832L255.407 540.377L254.97 539.635L254.542 540.383L251.977 544.873L251.93 539.702L251.922 538.841L251.178 539.275L246.712 541.88L249.257 537.379L249.681 536.629L248.819 536.633L243.649 536.656L248.103 534.03L248.845 533.593L248.097 533.166L243.608 530.6L248.778 530.554L249.64 530.546L249.206 529.802L246.601 525.335L251.101 527.88L251.851 528.304L251.848 527.443L251.825 522.272L254.45 526.726L254.888 527.469L255.315 526.721L257.88 522.231L257.927 527.402L257.935 528.263L258.679 527.829Z" fill="#33FF00" stroke="#2C2C2C"/>
</svg>
