<svg width="346" height="41" viewBox="0 0 346 41" fill="none" xmlns="http://www.w3.org/2000/svg">
<rect x="0.5" y="1.07242" width="345" height="39" rx="19.5" fill="url(#paint0_linear_217_12763)" stroke="#2C2C2C"/>
<rect x="1" y="1.57242" width="38" height="38" rx="19" fill="#2C2C2C"/>
<path d="M31.0728 20.5724C30.4705 18.8037 29.5876 17.1967 28.4747 15.843C27.3618 14.4893 26.0406 13.4155 24.5865 12.6829C23.1324 11.9503 21.5739 11.5732 19.9999 11.5732C18.426 11.5732 16.8675 11.9503 15.4134 12.6829C13.9593 13.4155 12.6381 14.4893 11.5252 15.843C10.4123 17.1967 9.52943 18.8037 8.92712 20.5724" stroke="white" stroke-linecap="round"/>
<rect x="307" y="1.57242" width="38" height="38" rx="19" fill="white"/>
<path d="M337.073 20.5724C336.471 22.3411 335.588 23.9481 334.475 25.3018C333.362 26.6555 332.041 27.7293 330.587 28.4619C329.132 29.1945 327.574 29.5716 326 29.5716C324.426 29.5716 322.868 29.1945 321.414 28.4619C319.959 27.7293 318.638 26.6555 317.525 25.3018C316.412 23.9481 315.53 22.3411 314.927 20.5724" stroke="#2C2C2C" stroke-linecap="round"/>
<defs>
<linearGradient id="paint0_linear_217_12763" x1="1" y1="20.5723" x2="345" y2="20.5724" gradientUnits="userSpaceOnUse">
<stop/>
<stop offset="0.5" stop-color="#33FF00"/>
<stop offset="1" stop-color="white"/>
</linearGradient>
</defs>
</svg>
