<svg width="101" height="100" viewBox="0 0 101 100" fill="none" xmlns="http://www.w3.org/2000/svg">
<path d="M55.275 31.6298L55.4496 32.7444L56.158 31.8665L74.2106 9.49648L63.864 36.3155L63.4579 37.368L64.5104 36.9619L91.3295 26.6153L68.9595 44.6679L68.0816 45.3764L69.1961 45.551L97.5954 50L69.1961 54.449L68.0816 54.6236L68.9595 55.3321L91.3295 73.3847L64.5104 63.0381L63.4579 62.632L63.864 63.6845L74.2106 90.5035L56.158 68.1335L55.4496 67.2556L55.275 68.3702L50.8259 96.7694L46.3769 68.3702L46.2023 67.2556L45.4938 68.1335L27.4412 90.5035L37.7879 63.6845L38.1939 62.632L37.1414 63.0381L10.3224 73.3847L32.6924 55.3321L33.5703 54.6236L32.4558 54.449L4.05649 50L32.4558 45.551L33.5703 45.3764L32.6924 44.6679L10.3224 26.6153L37.1414 36.9619L38.1939 37.368L37.7879 36.3155L27.4412 9.49647L45.4938 31.8665L46.2023 32.7444L46.3769 31.6298L50.8259 3.23056L55.275 31.6298Z" stroke="#2C2C2C"/>
</svg>
